# Blender 4.0.2
# www.blender.org
mtllib AxisScale.mtl
o Cube
v -0.100000 1.900000 0.100000 0.0000 1.0000 0.0000
v -0.100000 2.100000 0.100000 0.0314 1.0000 0.0314
v -0.100000 1.900000 -0.100000 0.0000 1.0000 0.0000
v -0.100000 2.100000 -0.100000 0.0000 1.0000 0.0000
v 0.100000 1.900000 0.100000 0.0000 1.0000 0.0000
v 0.100000 2.100000 0.100000 0.0000 1.0000 0.0000
v 0.100000 1.900000 -0.100000 0.0000 1.0000 0.0000
v 0.100000 2.100000 -0.100000 0.0000 1.0000 0.0000
v 0.000000 0.000000 -0.050000 0.0000 1.0000 0.0000
v 0.000000 1.900000 -0.050000 0.0000 1.0000 0.0000
v 0.009755 0.000000 -0.049039 0.0000 1.0000 0.0000
v 0.009755 1.900000 -0.049039 0.0000 1.0000 0.0000
v 0.019134 0.000000 -0.046194 0.0000 1.0000 0.0000
v 0.019134 1.900000 -0.046194 0.0000 1.0000 0.0000
v 0.027779 0.000000 -0.041573 0.0000 1.0000 0.0000
v 0.027779 1.900000 -0.041573 0.0000 1.0000 0.0000
v 0.035355 0.000000 -0.035355 0.0000 1.0000 0.0000
v 0.035355 1.900000 -0.035355 0.0000 1.0000 0.0000
v 0.041573 0.000000 -0.027779 0.0000 1.0000 0.0000
v 0.041573 1.900000 -0.027779 0.0000 1.0000 0.0000
v 0.046194 0.000000 -0.019134 0.0000 1.0000 0.0000
v 0.046194 1.900000 -0.019134 0.0000 1.0000 0.0000
v 0.049039 0.000000 -0.009755 0.0000 1.0000 0.0000
v 0.049039 1.900000 -0.009755 0.0000 1.0000 0.0000
v 0.050000 0.000000 0.000000 0.0000 1.0000 0.0000
v 0.050000 1.900000 -0.000000 0.0000 1.0000 0.0000
v 0.049039 0.000000 0.009755 0.0000 1.0000 0.0000
v 0.049039 1.900000 0.009755 0.0000 1.0000 0.0000
v 0.046194 0.000000 0.019134 0.0000 1.0000 0.0000
v 0.046194 1.900000 0.019134 0.0000 1.0000 0.0000
v 0.041573 0.000000 0.027779 0.0000 1.0000 0.0000
v 0.041573 1.900000 0.027779 0.0000 1.0000 0.0000
v 0.035355 0.000000 0.035355 0.0000 1.0000 0.0000
v 0.035355 1.900000 0.035355 0.0000 1.0000 0.0000
v 0.027779 0.000000 0.041573 0.0000 1.0000 0.0000
v 0.027779 1.900000 0.041573 0.0000 1.0000 0.0000
v 0.019134 0.000000 0.046194 0.0000 1.0000 0.0000
v 0.019134 1.900000 0.046194 0.0000 1.0000 0.0000
v 0.009755 0.000000 0.049039 0.0000 1.0000 0.0000
v 0.009755 1.900000 0.049039 0.0000 1.0000 0.0000
v 0.000000 0.000000 0.050000 0.0000 1.0000 0.0000
v 0.000000 1.900000 0.050000 0.0000 1.0000 0.0000
v -0.009755 0.000000 0.049039 0.0000 1.0000 0.0000
v -0.009755 1.900000 0.049039 0.0000 1.0000 0.0000
v -0.019134 0.000000 0.046194 0.0000 1.0000 0.0000
v -0.019134 1.900000 0.046194 0.0000 1.0000 0.0000
v -0.027779 0.000000 0.041573 0.0000 1.0000 0.0000
v -0.027779 1.900000 0.041573 0.0000 1.0000 0.0000
v -0.035355 0.000000 0.035355 0.0000 1.0000 0.0000
v -0.035355 1.900000 0.035355 0.0000 1.0000 0.0000
v -0.041573 0.000000 0.027779 0.0000 1.0000 0.0000
v -0.041573 1.900000 0.027779 0.0000 1.0000 0.0000
v -0.046194 0.000000 0.019134 0.0000 1.0000 0.0000
v -0.046194 1.900000 0.019134 0.0000 1.0000 0.0000
v -0.049039 0.000000 0.009755 0.0000 1.0000 0.0000
v -0.049039 1.900000 0.009755 0.0000 1.0000 0.0000
v -0.050000 0.000000 0.000000 0.0000 1.0000 0.0000
v -0.050000 1.900000 -0.000000 0.0000 1.0000 0.0000
v -0.049039 0.000000 -0.009755 0.0000 1.0000 0.0000
v -0.049039 1.900000 -0.009755 0.0000 1.0000 0.0000
v -0.046194 0.000000 -0.019134 0.0000 1.0000 0.0000
v -0.046194 1.900000 -0.019134 0.0000 1.0000 0.0000
v -0.041573 0.000000 -0.027779 0.0000 1.0000 0.0000
v -0.041573 1.900000 -0.027779 0.0000 1.0000 0.0000
v -0.035355 0.000000 -0.035355 0.0000 1.0000 0.0000
v -0.035355 1.900000 -0.035355 0.0000 1.0000 0.0000
v -0.027779 0.000000 -0.041573 0.0000 1.0000 0.0000
v -0.027779 1.900000 -0.041573 0.0000 1.0000 0.0000
v -0.019134 0.000000 -0.046194 0.0000 1.0000 0.0000
v -0.019134 1.900000 -0.046194 0.0000 1.0000 0.0000
v -0.009755 0.000000 -0.049039 0.0000 1.0000 0.0000
v -0.009755 1.900000 -0.049039 0.0000 1.0000 0.0000
vn -1.0000 -0.0000 -0.0000
vn -0.0000 -0.0000 -1.0000
vn 1.0000 -0.0000 -0.0000
vn -0.0000 -0.0000 1.0000
vn -0.0000 -1.0000 -0.0000
vn -0.0000 1.0000 -0.0000
vn 0.0980 -0.0000 -0.9952
vn 0.2903 -0.0000 -0.9569
vn 0.4714 -0.0000 -0.8819
vn 0.6344 -0.0000 -0.7730
vn 0.7730 -0.0000 -0.6344
vn 0.8819 -0.0000 -0.4714
vn 0.9569 -0.0000 -0.2903
vn 0.9952 -0.0000 -0.0980
vn 0.9952 -0.0000 0.0980
vn 0.9569 -0.0000 0.2903
vn 0.8819 -0.0000 0.4714
vn 0.7730 -0.0000 0.6344
vn 0.6344 -0.0000 0.7730
vn 0.4714 -0.0000 0.8819
vn 0.2903 -0.0000 0.9569
vn 0.0980 -0.0000 0.9952
vn -0.0980 -0.0000 0.9952
vn -0.2903 -0.0000 0.9569
vn -0.4714 -0.0000 0.8819
vn -0.6344 -0.0000 0.7730
vn -0.7730 -0.0000 0.6344
vn -0.8819 -0.0000 0.4714
vn -0.9569 -0.0000 0.2903
vn -0.9952 -0.0000 0.0980
vn -0.9952 -0.0000 -0.0980
vn -0.9569 -0.0000 -0.2903
vn -0.8819 -0.0000 -0.4714
vn -0.7730 -0.0000 -0.6344
vn -0.6344 -0.0000 -0.7730
vn -0.4714 -0.0000 -0.8819
vn -0.2903 -0.0000 -0.9569
vn -0.0980 -0.0000 -0.9952
vt 0.625000 0.000000
vt 0.375000 0.250000
vt 0.375000 0.000000
vt 0.625000 0.250000
vt 0.375000 0.500000
vt 0.625000 0.500000
vt 0.375000 0.750000
vt 0.625000 0.750000
vt 0.375000 1.000000
vt 0.125000 0.750000
vt 0.125000 0.500000
vt 0.875000 0.500000
vt 1.000000 1.000000
vt 0.968750 0.500000
vt 1.000000 0.500000
vt 0.968750 1.000000
vt 0.937500 0.500000
vt 0.937500 1.000000
vt 0.906250 0.500000
vt 0.906250 1.000000
vt 0.875000 1.000000
vt 0.843750 0.500000
vt 0.843750 1.000000
vt 0.812500 0.500000
vt 0.812500 1.000000
vt 0.781250 0.500000
vt 0.781250 1.000000
vt 0.750000 0.500000
vt 0.750000 1.000000
vt 0.718750 0.500000
vt 0.718750 1.000000
vt 0.687500 0.500000
vt 0.687500 1.000000
vt 0.656250 0.500000
vt 0.656250 1.000000
vt 0.625000 1.000000
vt 0.593750 0.500000
vt 0.593750 1.000000
vt 0.562500 0.500000
vt 0.562500 1.000000
vt 0.531250 0.500000
vt 0.531250 1.000000
vt 0.500000 0.500000
vt 0.500000 1.000000
vt 0.468750 0.500000
vt 0.468750 1.000000
vt 0.437500 0.500000
vt 0.437500 1.000000
vt 0.406250 0.500000
vt 0.406250 1.000000
vt 0.343750 0.500000
vt 0.343750 1.000000
vt 0.312500 0.500000
vt 0.312500 1.000000
vt 0.281250 0.500000
vt 0.281250 1.000000
vt 0.250000 0.500000
vt 0.250000 1.000000
vt 0.218750 0.500000
vt 0.218750 1.000000
vt 0.187500 0.500000
vt 0.187500 1.000000
vt 0.156250 0.500000
vt 0.156250 1.000000
vt 0.125000 1.000000
vt 0.093750 0.500000
vt 0.093750 1.000000
vt 0.062500 0.500000
vt 0.158156 0.028269
vt 0.471731 0.158156
vt 0.341844 0.471731
vt 0.062500 1.000000
vt 0.031250 0.500000
vt 0.031250 1.000000
vt 0.000000 0.500000
vt 0.796822 0.014612
vt 0.514612 0.203178
vt 0.703178 0.485388
vt 0.296822 0.485388
vt 0.250000 0.490000
vt 0.203178 0.485388
vt 0.158156 0.471731
vt 0.116663 0.449553
vt 0.080294 0.419706
vt 0.050447 0.383337
vt 0.028269 0.341844
vt 0.014612 0.296822
vt 0.010000 0.250000
vt 0.014612 0.203178
vt 0.028269 0.158156
vt 0.050447 0.116663
vt 0.080294 0.080294
vt 0.116663 0.050447
vt 0.203178 0.014612
vt 0.341844 0.028269
vt 0.250000 0.010000
vt 0.296822 0.014612
vt 0.383337 0.050447
vt 0.419706 0.080294
vt 0.449553 0.116663
vt 0.485388 0.203178
vt 0.471731 0.341844
vt 0.490000 0.250000
vt 0.485388 0.296822
vt 0.449553 0.383337
vt 0.419706 0.419706
vt 0.383337 0.449553
vt 0.000000 1.000000
vt 0.750000 0.490000
vt 0.796822 0.485388
vt 0.841844 0.471731
vt 0.883337 0.449553
vt 0.919706 0.419706
vt 0.949553 0.383337
vt 0.971731 0.341844
vt 0.985388 0.296822
vt 0.990000 0.250000
vt 0.985388 0.203178
vt 0.971731 0.158156
vt 0.949553 0.116663
vt 0.919706 0.080294
vt 0.883337 0.050447
vt 0.841844 0.028269
vt 0.750000 0.010000
vt 0.703178 0.014612
vt 0.658156 0.028269
vt 0.616663 0.050447
vt 0.580294 0.080294
vt 0.550447 0.116663
vt 0.528269 0.158156
vt 0.510000 0.250000
vt 0.514612 0.296822
vt 0.528269 0.341844
vt 0.550447 0.383337
vt 0.580294 0.419706
vt 0.616663 0.449553
vt 0.658156 0.471731
vt 0.875000 0.750000
s 0
usemtl Material.002
f 2/1/1 3/2/1 1/3/1
f 4/4/2 7/5/2 3/2/2
f 8/6/3 5/7/3 7/5/3
f 6/8/4 1/9/4 5/7/4
f 7/5/5 1/10/5 3/11/5
f 4/12/6 6/8/6 8/6/6
f 10/13/7 11/14/7 9/15/7
f 12/16/8 13/17/8 11/14/8
f 14/18/9 15/19/9 13/17/9
f 16/20/10 17/12/10 15/19/10
f 18/21/11 19/22/11 17/12/11
f 20/23/12 21/24/12 19/22/12
f 22/25/13 23/26/13 21/24/13
f 24/27/14 25/28/14 23/26/14
f 26/29/15 27/30/15 25/28/15
f 28/31/16 29/32/16 27/30/16
f 30/33/17 31/34/17 29/32/17
f 32/35/18 33/6/18 31/34/18
f 34/36/19 35/37/19 33/6/19
f 36/38/20 37/39/20 35/37/20
f 38/40/21 39/41/21 37/39/21
f 40/42/22 41/43/22 39/41/22
f 42/44/23 43/45/23 41/43/23
f 44/46/24 45/47/24 43/45/24
f 46/48/25 47/49/25 45/47/25
f 48/50/26 49/5/26 47/49/26
f 50/9/27 51/51/27 49/5/27
f 52/52/28 53/53/28 51/51/28
f 54/54/29 55/55/29 53/53/29
f 56/56/30 57/57/30 55/55/30
f 58/58/31 59/59/31 57/57/31
f 60/60/32 61/61/32 59/59/32
f 62/62/33 63/63/33 61/61/33
f 64/64/34 65/11/34 63/63/34
f 66/65/35 67/66/35 65/11/35
f 68/67/36 69/68/36 67/66/36
f 46/69/6 30/70/6 14/71/6
f 70/72/37 71/73/37 69/68/37
f 72/74/38 9/75/38 71/73/38
f 39/76/5 55/77/5 71/78/5
f 10/13/7 12/16/7 11/14/7
f 12/16/8 14/18/8 13/17/8
f 14/18/9 16/20/9 15/19/9
f 16/20/10 18/21/10 17/12/10
f 18/21/11 20/23/11 19/22/11
f 20/23/12 22/25/12 21/24/12
f 22/25/13 24/27/13 23/26/13
f 24/27/14 26/29/14 25/28/14
f 26/29/15 28/31/15 27/30/15
f 28/31/16 30/33/16 29/32/16
f 30/33/17 32/35/17 31/34/17
f 32/35/18 34/36/18 33/6/18
f 34/36/19 36/38/19 35/37/19
f 36/38/20 38/40/20 37/39/20
f 38/40/21 40/42/21 39/41/21
f 40/42/22 42/44/22 41/43/22
f 42/44/23 44/46/23 43/45/23
f 44/46/24 46/48/24 45/47/24
f 46/48/25 48/50/25 47/49/25
f 48/50/26 50/9/26 49/5/26
f 50/9/27 52/52/27 51/51/27
f 52/52/28 54/54/28 53/53/28
f 54/54/29 56/56/29 55/55/29
f 56/56/30 58/58/30 57/57/30
f 58/58/31 60/60/31 59/59/31
f 60/60/32 62/62/32 61/61/32
f 62/62/33 64/64/33 63/63/33
f 64/64/34 66/65/34 65/11/34
f 66/65/35 68/67/35 67/66/35
f 68/67/36 70/72/36 69/68/36
f 14/71/6 12/79/6 10/80/6
f 10/80/6 72/81/6 14/71/6
f 72/81/6 70/82/6 14/71/6
f 70/82/6 68/83/6 66/84/6
f 66/84/6 64/85/6 62/86/6
f 62/86/6 60/87/6 58/88/6
f 58/88/6 56/89/6 62/86/6
f 56/89/6 54/90/6 62/86/6
f 54/90/6 52/91/6 50/92/6
f 50/92/6 48/93/6 46/69/6
f 46/69/6 44/94/6 38/95/6
f 44/94/6 42/96/6 38/95/6
f 42/96/6 40/97/6 38/95/6
f 38/95/6 36/98/6 34/99/6
f 34/99/6 32/100/6 30/70/6
f 30/70/6 28/101/6 22/102/6
f 28/101/6 26/103/6 22/102/6
f 26/103/6 24/104/6 22/102/6
f 22/102/6 20/105/6 18/106/6
f 18/106/6 16/107/6 14/71/6
f 70/82/6 66/84/6 14/71/6
f 66/84/6 62/86/6 14/71/6
f 54/90/6 50/92/6 62/86/6
f 50/92/6 46/69/6 62/86/6
f 38/95/6 34/99/6 46/69/6
f 34/99/6 30/70/6 46/69/6
f 22/102/6 18/106/6 30/70/6
f 18/106/6 14/71/6 30/70/6
f 14/71/6 62/86/6 46/69/6
f 70/72/37 72/74/37 71/73/37
f 72/74/38 10/108/38 9/75/38
f 71/78/5 9/109/5 11/110/5
f 11/110/5 13/111/5 15/112/5
f 15/112/5 17/113/5 19/114/5
f 19/114/5 21/115/5 23/116/5
f 23/116/5 25/117/5 27/118/5
f 27/118/5 29/119/5 31/120/5
f 31/120/5 33/121/5 35/122/5
f 35/122/5 37/123/5 39/76/5
f 39/76/5 41/124/5 43/125/5
f 43/125/5 45/126/5 47/127/5
f 47/127/5 49/128/5 51/129/5
f 51/129/5 53/130/5 55/77/5
f 55/77/5 57/131/5 59/132/5
f 59/132/5 61/133/5 63/134/5
f 63/134/5 65/135/5 67/136/5
f 67/136/5 69/137/5 71/78/5
f 71/78/5 11/110/5 23/116/5
f 11/110/5 15/112/5 23/116/5
f 15/112/5 19/114/5 23/116/5
f 23/116/5 27/118/5 39/76/5
f 27/118/5 31/120/5 39/76/5
f 31/120/5 35/122/5 39/76/5
f 39/76/5 43/125/5 55/77/5
f 43/125/5 47/127/5 55/77/5
f 47/127/5 51/129/5 55/77/5
f 55/77/5 59/132/5 71/78/5
f 59/132/5 63/134/5 71/78/5
f 63/134/5 67/136/5 71/78/5
f 71/78/5 23/116/5 39/76/5
f 2/1/1 4/4/1 3/2/1
f 4/4/2 8/6/2 7/5/2
f 8/6/3 6/8/3 5/7/3
f 6/8/4 2/36/4 1/9/4
f 7/5/5 5/7/5 1/10/5
f 4/12/6 2/138/6 6/8/6
o Cube.001
v -0.100000 -0.050000 -1.900000 0.0000 0.0000 1.0000
v -0.100000 0.150000 -1.900000 0.0000 0.0000 1.0000
v -0.100000 -0.050000 -2.100000 0.0000 0.0000 1.0000
v -0.100000 0.150000 -2.100000 0.0039 0.0039 1.0000
v 0.100000 -0.050000 -1.900000 0.0000 0.0000 1.0000
v 0.100000 0.150000 -1.900000 0.0000 0.0000 1.0000
v 0.100000 -0.050000 -2.100000 0.0000 0.0000 1.0000
v 0.100000 0.150000 -2.100000 0.0157 0.0157 1.0000
v 0.050000 0.050000 -2.000000 0.0000 0.0000 1.0000
v 0.050000 0.050000 0.000000 0.0000 0.0000 1.0000
v 0.049039 0.040245 -2.000000 0.0000 0.0000 1.0000
v 0.049039 0.040245 0.000000 0.0000 0.0000 1.0000
v 0.046194 0.030866 -2.000000 0.0000 0.0000 1.0000
v 0.046194 0.030866 0.000000 0.0000 0.0000 1.0000
v 0.041574 0.022221 -2.000000 0.0000 0.0000 1.0000
v 0.041573 0.022221 0.000000 0.0000 0.0000 1.0000
v 0.035355 0.014645 -2.000000 0.0078 0.0078 1.0000
v 0.035355 0.014645 0.000000 0.0000 0.0000 1.0000
v 0.027779 0.008427 -2.000000 0.0118 0.0118 1.0000
v 0.027778 0.008427 0.000000 0.0000 0.0000 1.0000
v 0.019134 0.003806 -2.000000 0.0196 0.0196 1.0000
v 0.019134 0.003806 0.000000 0.0000 0.0000 1.0000
v 0.009755 0.000961 -2.000000 0.0157 0.0157 1.0000
v 0.009754 0.000961 0.000000 0.0000 0.0000 1.0000
v 0.000000 -0.000000 -2.000000 0.0196 0.0196 1.0000
v 0.000000 0.000000 0.000000 0.0000 0.0000 1.0000
v -0.009754 0.000961 -2.000000 0.0118 0.0118 1.0000
v -0.009755 0.000961 0.000000 0.0000 0.0000 1.0000
v -0.019134 0.003806 -2.000000 0.0078 0.0078 1.0000
v -0.019134 0.003806 0.000000 0.0000 0.0000 1.0000
v -0.027778 0.008427 -2.000000 0.0039 0.0039 1.0000
v -0.027779 0.008427 0.000000 0.0000 0.0000 1.0000
v -0.035355 0.014645 -2.000000 0.0000 0.0000 1.0000
v -0.035355 0.014645 0.000000 0.0000 0.0000 1.0000
v -0.041573 0.022221 -2.000000 0.0000 0.0000 1.0000
v -0.041574 0.022221 0.000000 0.0000 0.0000 1.0000
v -0.046194 0.030866 -2.000000 0.0000 0.0000 1.0000
v -0.046194 0.030866 0.000000 0.0000 0.0000 1.0000
v -0.049039 0.040245 -2.000000 0.0000 0.0000 1.0000
v -0.049039 0.040245 0.000000 0.0000 0.0000 1.0000
v -0.050000 0.050000 -2.000000 0.0000 0.0000 1.0000
v -0.050000 0.050000 0.000000 0.0000 0.0000 1.0000
v -0.049039 0.059755 -2.000000 0.0000 0.0000 1.0000
v -0.049039 0.059755 0.000000 0.0000 0.0000 1.0000
v -0.046194 0.069134 -2.000000 0.0000 0.0000 1.0000
v -0.046194 0.069134 0.000000 0.0000 0.0000 1.0000
v -0.041573 0.077779 -2.000000 0.0000 0.0000 1.0000
v -0.041574 0.077779 0.000000 0.0000 0.0000 1.0000
v -0.035355 0.085355 -2.000000 0.0000 0.0000 1.0000
v -0.035355 0.085355 0.000000 0.0000 0.0000 1.0000
v -0.027778 0.091573 -2.000000 0.0000 0.0000 1.0000
v -0.027779 0.091573 0.000000 0.0000 0.0000 1.0000
v -0.019134 0.096194 -2.000000 0.0000 0.0000 1.0000
v -0.019134 0.096194 0.000000 0.0000 0.0000 1.0000
v -0.009754 0.099039 -2.000000 0.0039 0.0039 1.0000
v -0.009755 0.099039 0.000000 0.0000 0.0000 1.0000
v 0.000000 0.100000 -2.000000 0.0039 0.0039 1.0000
v 0.000000 0.100000 0.000000 0.0000 0.0000 1.0000
v 0.009755 0.099039 -2.000000 0.0157 0.0157 1.0000
v 0.009754 0.099039 0.000000 0.0000 0.0000 1.0000
v 0.019134 0.096194 -2.000000 0.0275 0.0275 1.0000
v 0.019134 0.096194 0.000000 0.0000 0.0000 1.0000
v 0.027779 0.091573 -2.000000 0.0078 0.0078 1.0000
v 0.027778 0.091573 0.000000 0.0000 0.0000 1.0000
v 0.035355 0.085355 -2.000000 0.0039 0.0039 1.0000
v 0.035355 0.085355 0.000000 0.0000 0.0000 1.0000
v 0.041574 0.077779 -2.000000 0.0000 0.0000 1.0000
v 0.041573 0.077779 0.000000 0.0000 0.0000 1.0000
v 0.046194 0.069134 -2.000000 0.0000 0.0000 1.0000
v 0.046194 0.069134 0.000000 0.0000 0.0000 1.0000
v 0.049039 0.059755 -2.000000 0.0000 0.0000 1.0000
v 0.049039 0.059755 0.000000 0.0000 0.0000 1.0000
vn -1.0000 -0.0000 -0.0000
vn -0.0000 -0.0000 -1.0000
vn 1.0000 -0.0000 -0.0000
vn -0.0000 -0.0000 1.0000
vn -0.0000 -1.0000 -0.0000
vn -0.0000 1.0000 -0.0000
vn 0.9952 -0.0980 -0.0000
vn 0.9569 -0.2903 -0.0000
vn 0.8820 -0.4713 -0.0000
vn 0.7729 -0.6345 -0.0000
vn 0.6344 -0.7730 -0.0000
vn 0.4714 -0.8819 -0.0000
vn 0.2903 -0.9569 -0.0000
vn 0.0980 -0.9952 -0.0000
vn -0.0980 -0.9952 -0.0000
vn -0.2902 -0.9570 -0.0000
vn -0.4715 -0.8819 -0.0000
vn -0.6344 -0.7730 -0.0000
vn -0.7730 -0.6344 -0.0000
vn -0.8819 -0.4714 -0.0000
vn -0.9569 -0.2903 -0.0000
vn -0.9952 -0.0980 -0.0000
vn -0.9952 0.0980 -0.0000
vn -0.9569 0.2903 -0.0000
vn -0.8819 0.4714 -0.0000
vn -0.7730 0.6344 -0.0000
vn -0.6344 0.7730 -0.0000
vn -0.4715 0.8819 -0.0000
vn -0.2902 0.9570 -0.0000
vn -0.0980 0.9952 -0.0000
vn 0.0980 0.9952 -0.0000
vn 0.2903 0.9569 -0.0000
vn 0.4714 0.8819 -0.0000
vn 0.6344 0.7730 -0.0000
vn 0.7729 0.6345 -0.0000
vn 0.8820 0.4713 -0.0000
vn 0.9569 0.2903 -0.0000
vn 0.9952 0.0980 -0.0000
vn 0.8819 -0.4714 -0.0000
vn 0.7730 -0.6344 -0.0000
vn 0.4715 -0.8819 -0.0000
vn 0.2902 -0.9570 -0.0000
vn -0.2903 -0.9569 -0.0000
vn -0.4714 -0.8819 -0.0000
vn -0.7729 -0.6345 -0.0000
vn -0.8820 -0.4713 -0.0000
vn -0.8820 0.4713 -0.0000
vn -0.7729 0.6345 -0.0000
vn -0.4714 0.8819 -0.0000
vn -0.2903 0.9569 -0.0000
vn 0.2902 0.9570 -0.0000
vn 0.4715 0.8819 -0.0000
vn 0.7730 0.6344 -0.0000
vn 0.8819 0.4714 -0.0000
vn -0.0000 -0.0001 1.0000
vn -0.0000 -0.0003 1.0000
vn -0.0000 0.0002 1.0000
vn -0.0000 0.0001 1.0000
vn -0.0000 0.0003 1.0000
vt 0.625000 0.000000
vt 0.375000 0.250000
vt 0.375000 0.000000
vt 0.625000 0.250000
vt 0.375000 0.500000
vt 0.625000 0.500000
vt 0.375000 0.750000
vt 0.625000 0.750000
vt 0.375000 1.000000
vt 0.125000 0.750000
vt 0.125000 0.500000
vt 0.875000 0.500000
vt 1.000000 1.000000
vt 0.968750 0.500000
vt 1.000000 0.500000
vt 0.968750 1.000000
vt 0.937500 0.500000
vt 0.937500 1.000000
vt 0.906250 0.500000
vt 0.906250 1.000000
vt 0.875000 1.000000
vt 0.843750 0.500000
vt 0.843750 1.000000
vt 0.812500 0.500000
vt 0.812500 1.000000
vt 0.781250 0.500000
vt 0.781250 1.000000
vt 0.750000 0.500000
vt 0.750000 1.000000
vt 0.718750 0.500000
vt 0.718750 1.000000
vt 0.687500 0.500000
vt 0.687500 1.000000
vt 0.656250 0.500000
vt 0.656250 1.000000
vt 0.625000 1.000000
vt 0.593750 0.500000
vt 0.593750 1.000000
vt 0.562500 0.500000
vt 0.562500 1.000000
vt 0.531250 0.500000
vt 0.531250 1.000000
vt 0.500000 0.500000
vt 0.500000 1.000000
vt 0.468750 0.500000
vt 0.468750 1.000000
vt 0.437500 0.500000
vt 0.437500 1.000000
vt 0.406250 0.500000
vt 0.406250 1.000000
vt 0.343750 0.500000
vt 0.343750 1.000000
vt 0.312500 0.500000
vt 0.312500 1.000000
vt 0.281250 0.500000
vt 0.281250 1.000000
vt 0.250000 0.500000
vt 0.250000 1.000000
vt 0.218750 0.500000
vt 0.218750 1.000000
vt 0.187500 0.500000
vt 0.187500 1.000000
vt 0.156250 0.500000
vt 0.156250 1.000000
vt 0.125000 1.000000
vt 0.093750 0.500000
vt 0.093750 1.000000
vt 0.062500 0.500000
vt 0.158156 0.028269
vt 0.471731 0.158156
vt 0.341844 0.471731
vt 0.062500 1.000000
vt 0.031250 0.500000
vt 0.031250 1.000000
vt 0.000000 0.500000
vt 0.796822 0.014612
vt 0.514612 0.203178
vt 0.703178 0.485388
vt 0.296822 0.485388
vt 0.250000 0.490000
vt 0.203178 0.485388
vt 0.158156 0.471731
vt 0.116663 0.449553
vt 0.080294 0.419706
vt 0.050447 0.383337
vt 0.028269 0.341844
vt 0.014612 0.296822
vt 0.010000 0.250000
vt 0.014612 0.203178
vt 0.028269 0.158156
vt 0.050447 0.116663
vt 0.080294 0.080294
vt 0.116663 0.050447
vt 0.203178 0.014612
vt 0.341844 0.028269
vt 0.250000 0.010000
vt 0.296822 0.014612
vt 0.383337 0.050447
vt 0.419706 0.080294
vt 0.449553 0.116663
vt 0.485388 0.203178
vt 0.471731 0.341844
vt 0.490000 0.250000
vt 0.485388 0.296822
vt 0.449553 0.383337
vt 0.419706 0.419706
vt 0.383337 0.449553
vt 0.000000 1.000000
vt 0.750000 0.490000
vt 0.796822 0.485388
vt 0.841844 0.471731
vt 0.883337 0.449553
vt 0.919706 0.419706
vt 0.949553 0.383337
vt 0.971731 0.341844
vt 0.985388 0.296822
vt 0.990000 0.250000
vt 0.985388 0.203178
vt 0.971731 0.158156
vt 0.949553 0.116663
vt 0.919706 0.080294
vt 0.883337 0.050447
vt 0.841844 0.028269
vt 0.750000 0.010000
vt 0.703178 0.014612
vt 0.658156 0.028269
vt 0.616663 0.050447
vt 0.580294 0.080294
vt 0.550447 0.116663
vt 0.528269 0.158156
vt 0.510000 0.250000
vt 0.514612 0.296822
vt 0.528269 0.341844
vt 0.550447 0.383337
vt 0.580294 0.419706
vt 0.616663 0.449553
vt 0.658156 0.471731
vt 0.875000 0.750000
s 0
usemtl Material.003
f 74/139/39 75/140/39 73/141/39
f 76/142/40 79/143/40 75/140/40
f 80/144/41 77/145/41 79/143/41
f 78/146/42 73/147/42 77/145/42
f 79/143/43 73/148/43 75/149/43
f 76/150/44 78/146/44 80/144/44
f 82/151/45 83/152/45 81/153/45
f 84/154/46 85/155/46 83/152/46
f 86/156/47 87/157/47 85/155/47
f 88/158/48 89/150/48 87/157/48
f 90/159/49 91/160/49 89/150/49
f 92/161/50 93/162/50 91/160/50
f 94/163/51 95/164/51 93/162/51
f 96/165/52 97/166/52 95/164/52
f 98/167/53 99/168/53 97/166/53
f 100/169/54 101/170/54 99/168/54
f 102/171/55 103/172/55 101/170/55
f 104/173/56 105/144/56 103/172/56
f 106/174/57 107/175/57 105/144/57
f 108/176/58 109/177/58 107/175/58
f 110/178/59 111/179/59 109/177/59
f 112/180/60 113/181/60 111/179/60
f 114/182/61 115/183/61 113/181/61
f 116/184/62 117/185/62 115/183/62
f 118/186/63 119/187/63 117/185/63
f 120/188/64 121/143/64 119/187/64
f 122/147/65 123/189/65 121/143/65
f 124/190/66 125/191/66 123/189/66
f 126/192/67 127/193/67 125/191/67
f 128/194/68 129/195/68 127/193/68
f 130/196/69 131/197/69 129/195/69
f 132/198/70 133/199/70 131/197/70
f 134/200/71 135/201/71 133/199/71
f 136/202/72 137/149/72 135/201/72
f 138/203/73 139/204/73 137/149/73
f 140/205/74 141/206/74 139/204/74
f 118/207/42 102/208/42 86/209/42
f 142/210/75 143/211/75 141/206/75
f 144/212/76 81/213/76 143/211/76
f 111/214/40 127/215/40 143/216/40
f 82/151/45 84/154/45 83/152/45
f 84/154/46 86/156/46 85/155/46
f 86/156/77 88/158/77 87/157/77
f 88/158/78 90/159/78 89/150/78
f 90/159/49 92/161/49 91/160/49
f 92/161/79 94/163/79 93/162/79
f 94/163/80 96/165/80 95/164/80
f 96/165/52 98/167/52 97/166/52
f 98/167/53 100/169/53 99/168/53
f 100/169/81 102/171/81 101/170/81
f 102/171/82 104/173/82 103/172/82
f 104/173/56 106/174/56 105/144/56
f 106/174/83 108/176/83 107/175/83
f 108/176/84 110/178/84 109/177/84
f 110/178/59 112/180/59 111/179/59
f 112/180/60 114/182/60 113/181/60
f 114/182/61 116/184/61 115/183/61
f 116/184/62 118/186/62 117/185/62
f 118/186/85 120/188/85 119/187/85
f 120/188/86 122/147/86 121/143/86
f 122/147/65 124/190/65 123/189/65
f 124/190/87 126/192/87 125/191/87
f 126/192/88 128/194/88 127/193/88
f 128/194/68 130/196/68 129/195/68
f 130/196/69 132/198/69 131/197/69
f 132/198/89 134/200/89 133/199/89
f 134/200/90 136/202/90 135/201/90
f 136/202/72 138/203/72 137/149/72
f 138/203/91 140/205/91 139/204/91
f 140/205/92 142/210/92 141/206/92
f 86/209/42 84/217/42 82/218/42
f 82/218/42 144/219/42 86/209/42
f 144/219/42 142/220/42 86/209/42
f 142/220/42 140/221/42 138/222/42
f 138/222/93 136/223/93 134/224/93
f 134/224/94 132/225/94 130/226/94
f 130/226/95 128/227/95 134/224/95
f 128/227/93 126/228/93 134/224/93
f 126/228/93 124/229/93 122/230/93
f 122/230/42 120/231/42 118/207/42
f 118/207/42 116/232/42 110/233/42
f 116/232/42 114/234/42 110/233/42
f 114/234/42 112/235/42 110/233/42
f 110/233/42 108/236/42 106/237/42
f 106/237/96 104/238/96 102/208/96
f 102/208/96 100/239/96 94/240/96
f 100/239/93 98/241/93 94/240/93
f 98/241/97 96/242/97 94/240/97
f 94/240/96 92/243/96 90/244/96
f 90/244/42 88/245/42 86/209/42
f 142/220/42 138/222/42 86/209/42
f 138/222/42 134/224/42 86/209/42
f 126/228/42 122/230/42 134/224/42
f 122/230/42 118/207/42 134/224/42
f 110/233/42 106/237/42 118/207/42
f 106/237/42 102/208/42 118/207/42
f 94/240/42 90/244/42 102/208/42
f 90/244/42 86/209/42 102/208/42
f 86/209/42 134/224/42 118/207/42
f 142/210/75 144/212/75 143/211/75
f 144/212/76 82/246/76 81/213/76
f 143/216/40 81/247/40 83/248/40
f 83/248/40 85/249/40 87/250/40
f 87/250/40 89/251/40 91/252/40
f 91/252/40 93/253/40 95/254/40
f 95/254/40 97/255/40 99/256/40
f 99/256/40 101/257/40 103/258/40
f 103/258/40 105/259/40 107/260/40
f 107/260/40 109/261/40 111/214/40
f 111/214/40 113/262/40 115/263/40
f 115/263/40 117/264/40 119/265/40
f 119/265/40 121/266/40 123/267/40
f 123/267/40 125/268/40 127/215/40
f 127/215/40 129/269/40 131/270/40
f 131/270/40 133/271/40 135/272/40
f 135/272/40 137/273/40 139/274/40
f 139/274/40 141/275/40 143/216/40
f 143/216/40 83/248/40 95/254/40
f 83/248/40 87/250/40 95/254/40
f 87/250/40 91/252/40 95/254/40
f 95/254/40 99/256/40 111/214/40
f 99/256/40 103/258/40 111/214/40
f 103/258/40 107/260/40 111/214/40
f 111/214/40 115/263/40 127/215/40
f 115/263/40 119/265/40 127/215/40
f 119/265/40 123/267/40 127/215/40
f 127/215/40 131/270/40 143/216/40
f 131/270/40 135/272/40 143/216/40
f 135/272/40 139/274/40 143/216/40
f 143/216/40 95/254/40 111/214/40
f 74/139/39 76/142/39 75/140/39
f 76/142/40 80/144/40 79/143/40
f 80/144/41 78/146/41 77/145/41
f 78/146/42 74/174/42 73/147/42
f 79/143/43 77/145/43 73/148/43
f 76/150/44 74/276/44 78/146/44
o Cube.002
v 1.900000 -0.050000 0.100000 1.0000 0.0039 0.0039
v 1.900000 0.150000 0.100000 1.0000 0.0000 0.0000
v 1.900000 -0.050000 -0.100000 1.0000 0.0000 0.0000
v 1.900000 0.150000 -0.100000 1.0000 0.0118 0.0118
v 2.100000 -0.050000 0.100000 1.0000 0.0157 0.0157
v 2.100000 0.150000 0.100000 1.0000 0.0000 0.0000
v 2.100000 -0.050000 -0.100000 1.0000 0.0157 0.0157
v 2.100000 0.150000 -0.100000 1.0000 0.0549 0.0549
v 0.000000 0.050000 -0.050000 1.0000 0.0000 0.0000
v 2.000000 0.050000 -0.050000 1.0000 0.0118 0.0118
v 0.000000 0.040246 -0.049039 1.0000 0.0000 0.0000
v 2.000000 0.040245 -0.049039 1.0000 0.0078 0.0078
v 0.000000 0.030866 -0.046194 1.0000 0.0000 0.0000
v 2.000000 0.030866 -0.046194 1.0000 0.0078 0.0078
v 0.000000 0.022222 -0.041573 1.0000 0.0000 0.0000
v 2.000000 0.022221 -0.041573 1.0000 0.0039 0.0039
v 0.000000 0.014645 -0.035355 1.0000 0.0000 0.0000
v 2.000000 0.014645 -0.035355 1.0000 0.0039 0.0039
v 0.000000 0.008427 -0.027779 1.0000 0.0000 0.0000
v 2.000000 0.008426 -0.027779 1.0000 0.0000 0.0000
v 0.000000 0.003806 -0.019134 1.0000 0.0000 0.0000
v 2.000000 0.003806 -0.019134 1.0000 0.0000 0.0000
v 0.000000 0.000961 -0.009755 1.0000 0.0000 0.0000
v 2.000000 0.000961 -0.009755 1.0000 0.0000 0.0000
v 0.000000 0.000000 0.000000 1.0000 0.0000 0.0000
v 2.000000 0.000000 0.000000 1.0000 0.0000 0.0000
v 0.000000 0.000961 0.009755 1.0000 0.0000 0.0000
v 2.000000 0.000961 0.009755 1.0000 0.0000 0.0000
v 0.000000 0.003806 0.019134 1.0000 0.0000 0.0000
v 2.000000 0.003806 0.019134 1.0000 0.0000 0.0000
v 0.000000 0.008427 0.027779 1.0000 0.0000 0.0000
v 2.000000 0.008426 0.027779 1.0000 0.0000 0.0000
v 0.000000 0.014645 0.035355 1.0000 0.0000 0.0000
v 2.000000 0.014645 0.035355 1.0000 0.0000 0.0000
v 0.000000 0.022222 0.041573 1.0000 0.0000 0.0000
v 2.000000 0.022221 0.041573 1.0000 0.0000 0.0000
v 0.000000 0.030866 0.046194 1.0000 0.0000 0.0000
v 2.000000 0.030866 0.046194 1.0000 0.0000 0.0000
v 0.000000 0.040246 0.049039 1.0000 0.0000 0.0000
v 2.000000 0.040245 0.049039 1.0000 0.0000 0.0000
v 0.000000 0.050000 0.050000 1.0000 0.0000 0.0000
v 2.000000 0.050000 0.050000 1.0000 0.0000 0.0000
v 0.000000 0.059755 0.049039 1.0000 0.0000 0.0000
v 2.000000 0.059754 0.049039 1.0000 0.0000 0.0000
v 0.000000 0.069134 0.046194 1.0000 0.0000 0.0000
v 2.000000 0.069134 0.046194 1.0000 0.0000 0.0000
v 0.000000 0.077779 0.041573 1.0000 0.0000 0.0000
v 2.000000 0.077778 0.041573 1.0000 0.0000 0.0000
v 0.000000 0.085355 0.035355 1.0000 0.0000 0.0000
v 2.000000 0.085355 0.035355 1.0000 0.0000 0.0000
v 0.000000 0.091574 0.027779 1.0000 0.0000 0.0000
v 2.000000 0.091573 0.027779 1.0000 0.0000 0.0000
v 0.000000 0.096194 0.019134 1.0000 0.0000 0.0000
v 2.000000 0.096194 0.019134 1.0000 0.0000 0.0000
v 0.000000 0.099039 0.009755 1.0000 0.0000 0.0000
v 2.000000 0.099039 0.009755 1.0000 0.0039 0.0039
v 0.000000 0.100000 -0.000000 1.0000 0.0000 0.0000
v 2.000000 0.100000 -0.000000 1.0000 0.0078 0.0078
v 0.000000 0.099039 -0.009755 1.0000 0.0000 0.0000
v 2.000000 0.099039 -0.009755 1.0000 0.0157 0.0157
v 0.000000 0.096194 -0.019134 1.0000 0.0000 0.0000
v 2.000000 0.096194 -0.019134 1.0000 0.0235 0.0235
v 0.000000 0.091574 -0.027779 1.0000 0.0000 0.0000
v 2.000000 0.091573 -0.027779 1.0000 0.0353 0.0353
v 0.000000 0.085355 -0.035355 1.0000 0.0000 0.0000
v 2.000000 0.085355 -0.035355 1.0000 0.0471 0.0471
v 0.000000 0.077779 -0.041573 1.0000 0.0000 0.0000
v 2.000000 0.077778 -0.041573 1.0000 0.0549 0.0549
v 0.000000 0.069134 -0.046194 1.0000 0.0000 0.0000
v 2.000000 0.069134 -0.046194 1.0000 0.0392 0.0392
v 0.000000 0.059755 -0.049039 1.0000 0.0000 0.0000
v 2.000000 0.059754 -0.049039 1.0000 0.0275 0.0275
vn -1.0000 -0.0000 -0.0000
vn -0.0000 -0.0000 -1.0000
vn 1.0000 -0.0000 -0.0000
vn -0.0000 -0.0000 1.0000
vn -0.0000 -1.0000 -0.0000
vn -0.0000 1.0000 -0.0000
vn -0.0000 -0.0980 -0.9952
vn -0.0000 -0.2902 -0.9570
vn -0.0000 -0.4715 -0.8819
vn -0.0000 -0.6344 -0.7730
vn -0.0000 -0.7730 -0.6344
vn -0.0000 -0.8819 -0.4714
vn -0.0000 -0.9569 -0.2903
vn -0.0000 -0.9952 -0.0980
vn -0.0000 -0.9952 0.0980
vn -0.0000 -0.9569 0.2903
vn -0.0000 -0.8819 0.4714
vn -0.0000 -0.7730 0.6344
vn -0.0000 -0.6344 0.7730
vn -0.0000 -0.4715 0.8819
vn -0.0000 -0.2902 0.9570
vn -0.0000 -0.0980 0.9952
vn -0.0000 0.0980 0.9952
vn -0.0000 0.2903 0.9569
vn -0.0000 0.4714 0.8819
vn -0.0000 0.6344 0.7730
vn -0.0000 0.7729 0.6345
vn -0.0000 0.8820 0.4713
vn -0.0000 0.9569 0.2903
vn -0.0000 0.9952 0.0980
vn -0.0000 0.9952 -0.0980
vn -0.0000 0.9569 -0.2903
vn -0.0000 0.8820 -0.4713
vn -0.0000 0.7729 -0.6345
vn -0.0000 0.6344 -0.7730
vn -0.0000 0.4714 -0.8819
vn -0.0000 0.2903 -0.9569
vn -0.0000 0.0980 -0.9952
vn -0.0000 -0.2903 -0.9569
vn -0.0000 -0.4714 -0.8819
vn -0.0000 -0.7729 -0.6345
vn -0.0000 -0.8820 -0.4713
vn -0.0000 -0.8820 0.4713
vn -0.0000 -0.7729 0.6345
vn -0.0000 -0.4714 0.8819
vn -0.0000 -0.2903 0.9569
vn -0.0000 0.2902 0.9570
vn -0.0000 0.4715 0.8819
vn -0.0000 0.7730 0.6344
vn -0.0000 0.8819 0.4714
vn -0.0000 0.8819 -0.4714
vn -0.0000 0.7730 -0.6344
vn -0.0000 0.4715 -0.8819
vn -0.0000 0.2902 -0.9570
vn -1.0000 -0.0000 -0.0001
vn -1.0000 -0.0000 0.0001
vt 0.625000 0.000000
vt 0.375000 0.250000
vt 0.375000 0.000000
vt 0.625000 0.250000
vt 0.375000 0.500000
vt 0.625000 0.500000
vt 0.375000 0.750000
vt 0.625000 0.750000
vt 0.375000 1.000000
vt 0.125000 0.750000
vt 0.125000 0.500000
vt 0.875000 0.500000
vt 1.000000 1.000000
vt 0.968750 0.500000
vt 1.000000 0.500000
vt 0.968750 1.000000
vt 0.937500 0.500000
vt 0.937500 1.000000
vt 0.906250 0.500000
vt 0.906250 1.000000
vt 0.875000 1.000000
vt 0.843750 0.500000
vt 0.843750 1.000000
vt 0.812500 0.500000
vt 0.812500 1.000000
vt 0.781250 0.500000
vt 0.781250 1.000000
vt 0.750000 0.500000
vt 0.750000 1.000000
vt 0.718750 0.500000
vt 0.718750 1.000000
vt 0.687500 0.500000
vt 0.687500 1.000000
vt 0.656250 0.500000
vt 0.656250 1.000000
vt 0.625000 1.000000
vt 0.593750 0.500000
vt 0.593750 1.000000
vt 0.562500 0.500000
vt 0.562500 1.000000
vt 0.531250 0.500000
vt 0.531250 1.000000
vt 0.500000 0.500000
vt 0.500000 1.000000
vt 0.468750 0.500000
vt 0.468750 1.000000
vt 0.437500 0.500000
vt 0.437500 1.000000
vt 0.406250 0.500000
vt 0.406250 1.000000
vt 0.343750 0.500000
vt 0.343750 1.000000
vt 0.312500 0.500000
vt 0.312500 1.000000
vt 0.281250 0.500000
vt 0.281250 1.000000
vt 0.250000 0.500000
vt 0.250000 1.000000
vt 0.218750 0.500000
vt 0.218750 1.000000
vt 0.187500 0.500000
vt 0.187500 1.000000
vt 0.156250 0.500000
vt 0.156250 1.000000
vt 0.125000 1.000000
vt 0.093750 0.500000
vt 0.093750 1.000000
vt 0.062500 0.500000
vt 0.158156 0.028269
vt 0.471731 0.158156
vt 0.341844 0.471731
vt 0.062500 1.000000
vt 0.031250 0.500000
vt 0.031250 1.000000
vt 0.000000 0.500000
vt 0.796822 0.014612
vt 0.514612 0.203178
vt 0.703178 0.485388
vt 0.296822 0.485388
vt 0.250000 0.490000
vt 0.203178 0.485388
vt 0.158156 0.471731
vt 0.116663 0.449553
vt 0.080294 0.419706
vt 0.050447 0.383337
vt 0.028269 0.341844
vt 0.014612 0.296822
vt 0.010000 0.250000
vt 0.014612 0.203178
vt 0.028269 0.158156
vt 0.050447 0.116663
vt 0.080294 0.080294
vt 0.116663 0.050447
vt 0.203178 0.014612
vt 0.341844 0.028269
vt 0.250000 0.010000
vt 0.296822 0.014612
vt 0.383337 0.050447
vt 0.419706 0.080294
vt 0.449553 0.116663
vt 0.485388 0.203178
vt 0.471731 0.341844
vt 0.490000 0.250000
vt 0.485388 0.296822
vt 0.449553 0.383337
vt 0.419706 0.419706
vt 0.383337 0.449553
vt 0.000000 1.000000
vt 0.750000 0.490000
vt 0.796822 0.485388
vt 0.841844 0.471731
vt 0.883337 0.449553
vt 0.919706 0.419706
vt 0.949553 0.383337
vt 0.971731 0.341844
vt 0.985388 0.296822
vt 0.990000 0.250000
vt 0.985388 0.203178
vt 0.971731 0.158156
vt 0.949553 0.116663
vt 0.919706 0.080294
vt 0.883337 0.050447
vt 0.841844 0.028269
vt 0.750000 0.010000
vt 0.703178 0.014612
vt 0.658156 0.028269
vt 0.616663 0.050447
vt 0.580294 0.080294
vt 0.550447 0.116663
vt 0.528269 0.158156
vt 0.510000 0.250000
vt 0.514612 0.296822
vt 0.528269 0.341844
vt 0.550447 0.383337
vt 0.580294 0.419706
vt 0.616663 0.449553
vt 0.658156 0.471731
vt 0.875000 0.750000
s 0
usemtl Material.001
f 146/277/98 147/278/98 145/279/98
f 148/280/99 151/281/99 147/278/99
f 152/282/100 149/283/100 151/281/100
f 150/284/101 145/285/101 149/283/101
f 151/281/102 145/286/102 147/287/102
f 148/288/103 150/284/103 152/282/103
f 154/289/104 155/290/104 153/291/104
f 156/292/105 157/293/105 155/290/105
f 158/294/106 159/295/106 157/293/106
f 160/296/107 161/288/107 159/295/107
f 162/297/108 163/298/108 161/288/108
f 164/299/109 165/300/109 163/298/109
f 166/301/110 167/302/110 165/300/110
f 168/303/111 169/304/111 167/302/111
f 170/305/112 171/306/112 169/304/112
f 172/307/113 173/308/113 171/306/113
f 174/309/114 175/310/114 173/308/114
f 176/311/115 177/282/115 175/310/115
f 178/312/116 179/313/116 177/282/116
f 180/314/117 181/315/117 179/313/117
f 182/316/118 183/317/118 181/315/118
f 184/318/119 185/319/119 183/317/119
f 186/320/120 187/321/120 185/319/120
f 188/322/121 189/323/121 187/321/121
f 190/324/122 191/325/122 189/323/122
f 192/326/123 193/281/123 191/325/123
f 194/285/124 195/327/124 193/281/124
f 196/328/125 197/329/125 195/327/125
f 198/330/126 199/331/126 197/329/126
f 200/332/127 201/333/127 199/331/127
f 202/334/128 203/335/128 201/333/128
f 204/336/129 205/337/129 203/335/129
f 206/338/130 207/339/130 205/337/130
f 208/340/131 209/287/131 207/339/131
f 210/341/132 211/342/132 209/287/132
f 212/343/133 213/344/133 211/342/133
f 190/345/100 174/346/100 158/347/100
f 214/348/134 215/349/134 213/344/134
f 216/350/135 153/351/135 215/349/135
f 183/352/98 199/353/98 215/354/98
f 154/289/104 156/292/104 155/290/104
f 156/292/136 158/294/136 157/293/136
f 158/294/137 160/296/137 159/295/137
f 160/296/107 162/297/107 161/288/107
f 162/297/138 164/299/138 163/298/138
f 164/299/139 166/301/139 165/300/139
f 166/301/110 168/303/110 167/302/110
f 168/303/111 170/305/111 169/304/111
f 170/305/112 172/307/112 171/306/112
f 172/307/113 174/309/113 173/308/113
f 174/309/140 176/311/140 175/310/140
f 176/311/141 178/312/141 177/282/141
f 178/312/116 180/314/116 179/313/116
f 180/314/142 182/316/142 181/315/142
f 182/316/143 184/318/143 183/317/143
f 184/318/119 186/320/119 185/319/119
f 186/320/120 188/322/120 187/321/120
f 188/322/144 190/324/144 189/323/144
f 190/324/145 192/326/145 191/325/145
f 192/326/123 194/285/123 193/281/123
f 194/285/146 196/328/146 195/327/146
f 196/328/147 198/330/147 197/329/147
f 198/330/126 200/332/126 199/331/126
f 200/332/127 202/334/127 201/333/127
f 202/334/128 204/336/128 203/335/128
f 204/336/129 206/338/129 205/337/129
f 206/338/148 208/340/148 207/339/148
f 208/340/149 210/341/149 209/287/149
f 210/341/132 212/343/132 211/342/132
f 212/343/150 214/348/150 213/344/150
f 158/347/100 156/355/100 154/356/100
f 154/356/100 216/357/100 158/347/100
f 216/357/100 214/358/100 158/347/100
f 214/358/100 212/359/100 210/360/100
f 210/360/100 208/361/100 206/362/100
f 206/362/100 204/363/100 202/364/100
f 202/364/100 200/365/100 206/362/100
f 200/365/100 198/366/100 206/362/100
f 198/366/100 196/367/100 194/368/100
f 194/368/100 192/369/100 190/345/100
f 190/345/100 188/370/100 182/371/100
f 188/370/100 186/372/100 182/371/100
f 186/372/100 184/373/100 182/371/100
f 182/371/100 180/374/100 178/375/100
f 178/375/100 176/376/100 174/346/100
f 174/346/100 172/377/100 166/378/100
f 172/377/100 170/379/100 166/378/100
f 170/379/100 168/380/100 166/378/100
f 166/378/100 164/381/100 162/382/100
f 162/382/100 160/383/100 158/347/100
f 214/358/100 210/360/100 158/347/100
f 210/360/100 206/362/100 158/347/100
f 198/366/100 194/368/100 206/362/100
f 194/368/100 190/345/100 206/362/100
f 182/371/100 178/375/100 190/345/100
f 178/375/100 174/346/100 190/345/100
f 166/378/100 162/382/100 174/346/100
f 162/382/100 158/347/100 174/346/100
f 158/347/100 206/362/100 190/345/100
f 214/348/151 216/350/151 215/349/151
f 216/350/135 154/384/135 153/351/135
f 215/354/152 153/385/152 155/386/152
f 155/386/152 157/387/152 159/388/152
f 159/388/153 161/389/153 163/390/153
f 163/390/98 165/391/98 167/392/98
f 167/392/98 169/393/98 171/394/98
f 171/394/98 173/395/98 175/396/98
f 175/396/152 177/397/152 179/398/152
f 179/398/153 181/399/153 183/352/153
f 183/352/152 185/400/152 187/401/152
f 187/401/98 189/402/98 191/403/98
f 191/403/98 193/404/98 195/405/98
f 195/405/98 197/406/98 199/353/98
f 199/353/98 201/407/98 203/408/98
f 203/408/98 205/409/98 207/410/98
f 207/410/98 209/411/98 211/412/98
f 211/412/98 213/413/98 215/354/98
f 215/354/98 155/386/98 167/392/98
f 155/386/98 159/388/98 167/392/98
f 159/388/98 163/390/98 167/392/98
f 167/392/98 171/394/98 183/352/98
f 171/394/98 175/396/98 183/352/98
f 175/396/98 179/398/98 183/352/98
f 183/352/98 187/401/98 199/353/98
f 187/401/98 191/403/98 199/353/98
f 191/403/98 195/405/98 199/353/98
f 199/353/98 203/408/98 215/354/98
f 203/408/98 207/410/98 215/354/98
f 207/410/98 211/412/98 215/354/98
f 215/354/98 167/392/98 183/352/98
f 146/277/98 148/280/98 147/278/98
f 148/280/99 152/282/99 151/281/99
f 152/282/100 150/284/100 149/283/100
f 150/284/101 146/312/101 145/285/101
f 151/281/102 149/283/102 145/286/102
f 148/288/103 146/414/103 150/284/103
o Cube.003
v -0.100000 -0.050000 0.100000 1.0000 1.0000 1.0000
v -0.100000 0.150000 0.100000 1.0000 1.0000 1.0000
v -0.100000 -0.050000 -0.100000 1.0000 1.0000 1.0000
v -0.100000 0.150000 -0.100000 1.0000 1.0000 1.0000
v 0.100000 -0.050000 0.100000 1.0000 1.0000 1.0000
v 0.100000 0.150000 0.100000 1.0000 1.0000 1.0000
v 0.100000 -0.050000 -0.100000 1.0000 1.0000 1.0000
v 0.100000 0.150000 -0.100000 1.0000 1.0000 1.0000
vn -1.0000 -0.0000 -0.0000
vn -0.0000 -0.0000 -1.0000
vn 1.0000 -0.0000 -0.0000
vn -0.0000 -0.0000 1.0000
vn -0.0000 -1.0000 -0.0000
vn -0.0000 1.0000 -0.0000
vt 0.625000 0.000000
vt 0.375000 0.250000
vt 0.375000 0.000000
vt 0.625000 0.250000
vt 0.375000 0.500000
vt 0.625000 0.500000
vt 0.375000 0.750000
vt 0.625000 0.750000
vt 0.375000 1.000000
vt 0.125000 0.750000
vt 0.125000 0.500000
vt 0.875000 0.500000
vt 0.625000 1.000000
vt 0.875000 0.750000
s 0
usemtl Material.007
f 218/415/154 219/416/154 217/417/154
f 220/418/155 223/419/155 219/416/155
f 224/420/156 221/421/156 223/419/156
f 222/422/157 217/423/157 221/421/157
f 223/419/158 217/424/158 219/425/158
f 220/426/159 222/422/159 224/420/159
f 218/415/154 220/418/154 219/416/154
f 220/418/155 224/420/155 223/419/155
f 224/420/156 222/422/156 221/421/156
f 222/422/157 218/427/157 217/423/157
f 223/419/158 221/421/158 217/424/158
f 220/426/159 218/428/159 222/422/159
