# Blender 4.0.2
# www.blender.org
mtllib Axis.mtl.mtl
o Cone.001
v 0.000000 -0.075000 -1.800000 0.0000 0.0000 1.0000
v 0.024386 -0.072598 -1.800000 0.0000 0.0000 1.0000
v 0.047835 -0.065485 -1.800000 0.0000 0.0000 1.0000
v 0.069446 -0.053934 -1.800000 0.0000 0.0000 1.0000
v 0.088388 -0.038388 -1.800000 0.0000 0.0000 1.0000
v 0.103934 -0.019446 -1.800000 0.0000 0.0000 1.0000
v 0.115485 0.002165 -1.800000 0.0000 0.0000 1.0000
v 0.122598 0.025614 -1.800000 0.0000 0.0000 1.0000
v 0.125000 0.050000 -1.800000 0.0000 0.0000 1.0000
v 0.122598 0.074386 -1.800000 0.0000 0.0000 1.0000
v 0.115485 0.097835 -1.800000 0.0000 0.0000 1.0000
v 0.103934 0.119446 -1.800000 0.0000 0.0000 1.0000
v 0.088388 0.138388 -1.800000 0.0000 0.0000 1.0000
v 0.069446 0.153934 -1.800000 0.0000 0.0000 1.0000
v 0.047835 0.165485 -1.800000 0.0000 0.0000 1.0000
v 0.024386 0.172598 -1.800000 0.0000 0.0000 1.0000
v 0.000000 0.175000 -1.800000 0.0000 0.0000 1.0000
v -0.024386 0.172598 -1.800000 0.0000 0.0000 1.0000
v -0.047835 0.165485 -1.800000 0.0000 0.0000 1.0000
v -0.069446 0.153934 -1.800000 0.0000 0.0000 1.0000
v -0.088388 0.138388 -1.800000 0.0000 0.0000 1.0000
v -0.103934 0.119446 -1.800000 0.0000 0.0000 1.0000
v -0.115485 0.097835 -1.800000 0.0000 0.0000 1.0000
v -0.122598 0.074386 -1.800000 0.0000 0.0000 1.0000
v -0.125000 0.050000 -1.800000 0.0000 0.0000 1.0000
v -0.122598 0.025614 -1.800000 0.0000 0.0000 1.0000
v -0.115485 0.002165 -1.800000 0.0000 0.0000 1.0000
v -0.103934 -0.019446 -1.800000 0.0000 0.0000 1.0000
v -0.088388 -0.038388 -1.800000 0.0000 0.0000 1.0000
v -0.069446 -0.053934 -1.800000 0.0000 0.0000 1.0000
v -0.047835 -0.065485 -1.800000 0.0000 0.0000 1.0000
v -0.024386 -0.072598 -1.800000 0.0000 0.0000 1.0000
v 0.000000 0.050000 -2.200000 0.0000 0.0000 1.0000
v 0.050000 0.050000 -2.000000 0.0000 0.0000 1.0000
v 0.050000 0.050000 -0.000000 0.0000 0.0000 1.0000
v 0.049039 0.040245 -2.000000 0.0000 0.0000 1.0000
v 0.049039 0.040245 -0.000000 0.0000 0.0000 1.0000
v 0.046194 0.030866 -2.000000 0.0000 0.0000 1.0000
v 0.046194 0.030866 -0.000000 0.0000 0.0000 1.0000
v 0.041574 0.022221 -2.000000 0.0000 0.0000 1.0000
v 0.041573 0.022221 -0.000000 0.0000 0.0000 1.0000
v 0.035355 0.014645 -2.000000 0.0000 0.0000 1.0000
v 0.035355 0.014645 -0.000000 0.0000 0.0000 1.0000
v 0.027779 0.008427 -2.000000 0.0000 0.0000 1.0000
v 0.027778 0.008427 -0.000000 0.0000 0.0000 1.0000
v 0.019134 0.003806 -2.000000 0.0000 0.0000 1.0000
v 0.019134 0.003806 -0.000000 0.0000 0.0000 1.0000
v 0.009755 0.000961 -2.000000 0.0000 0.0000 1.0000
v 0.009754 0.000961 -0.000000 0.0000 0.0000 1.0000
v 0.000000 -0.000000 -2.000000 0.0000 0.0000 1.0000
v 0.000000 0.000000 0.000000 0.0000 0.0000 1.0000
v -0.009754 0.000961 -2.000000 0.0000 0.0000 1.0000
v -0.009755 0.000961 -0.000000 0.0000 0.0000 1.0000
v -0.019134 0.003806 -2.000000 0.0000 0.0000 1.0000
v -0.019134 0.003806 -0.000000 0.0000 0.0000 1.0000
v -0.027778 0.008427 -2.000000 0.0000 0.0000 1.0000
v -0.027779 0.008427 -0.000000 0.0000 0.0000 1.0000
v -0.035355 0.014645 -2.000000 0.0000 0.0000 1.0000
v -0.035355 0.014645 -0.000000 0.0000 0.0000 1.0000
v -0.041573 0.022221 -2.000000 0.0000 0.0000 1.0000
v -0.041574 0.022221 -0.000000 0.0000 0.0000 1.0000
v -0.046194 0.030866 -2.000000 0.0000 0.0000 1.0000
v -0.046194 0.030866 -0.000000 0.0000 0.0000 1.0000
v -0.049039 0.040245 -2.000000 0.0000 0.0000 1.0000
v -0.049039 0.040245 -0.000000 0.0000 0.0000 1.0000
v -0.050000 0.050000 -2.000000 0.0000 0.0000 1.0000
v -0.050000 0.050000 -0.000000 0.0000 0.0000 1.0000
v -0.049039 0.059755 -2.000000 0.0000 0.0000 1.0000
v -0.049039 0.059755 -0.000000 0.0000 0.0000 1.0000
v -0.046194 0.069134 -2.000000 0.0000 0.0000 1.0000
v -0.046194 0.069134 -0.000000 0.0000 0.0000 1.0000
v -0.041573 0.077779 -2.000000 0.0000 0.0000 1.0000
v -0.041574 0.077779 -0.000000 0.0000 0.0000 1.0000
v -0.035355 0.085355 -2.000000 0.0000 0.0000 1.0000
v -0.035355 0.085355 -0.000000 0.0000 0.0000 1.0000
v -0.027778 0.091573 -2.000000 0.0000 0.0000 1.0000
v -0.027779 0.091573 -0.000000 0.0000 0.0000 1.0000
v -0.019134 0.096194 -2.000000 0.0000 0.0000 1.0000
v -0.019134 0.096194 -0.000000 0.0000 0.0000 1.0000
v -0.009754 0.099039 -2.000000 0.0000 0.0000 1.0000
v -0.009755 0.099039 -0.000000 0.0000 0.0000 1.0000
v 0.000000 0.100000 -2.000000 0.0000 0.0000 1.0000
v 0.000000 0.100000 -0.000000 0.0000 0.0000 1.0000
v 0.009755 0.099039 -2.000000 0.0000 0.0000 1.0000
v 0.009754 0.099039 -0.000000 0.0000 0.0000 1.0000
v 0.019134 0.096194 -2.000000 0.0000 0.0000 1.0000
v 0.019134 0.096194 -0.000000 0.0000 0.0000 1.0000
v 0.027779 0.091573 -2.000000 0.0000 0.0000 1.0000
v 0.027778 0.091573 -0.000000 0.0000 0.0000 1.0000
v 0.035355 0.085355 -2.000000 0.0000 0.0000 1.0000
v 0.035355 0.085355 -0.000000 0.0000 0.0000 1.0000
v 0.041574 0.077779 -2.000000 0.0000 0.0000 1.0000
v 0.041573 0.077779 -0.000000 0.0000 0.0000 1.0000
v 0.046194 0.069134 -2.000000 0.0000 0.0000 1.0000
v 0.046194 0.069134 -0.000000 0.0000 0.0000 1.0000
v 0.049039 0.059755 -2.000000 0.0000 0.0000 1.0000
v 0.049039 0.059755 -0.000000 0.0000 0.0000 1.0000
vn 0.0936 -0.9503 -0.2970
vn 0.2772 -0.9138 -0.2970
vn 0.4501 -0.8421 -0.2970
vn 0.6058 -0.7381 -0.2970
vn 0.7381 -0.6058 -0.2970
vn 0.8421 -0.4501 -0.2970
vn 0.9138 -0.2772 -0.2970
vn 0.9503 -0.0936 -0.2970
vn 0.9503 0.0936 -0.2970
vn 0.9138 0.2772 -0.2970
vn 0.8421 0.4501 -0.2970
vn 0.7381 0.6058 -0.2970
vn 0.6058 0.7381 -0.2970
vn 0.4501 0.8421 -0.2970
vn 0.2772 0.9138 -0.2970
vn 0.0936 0.9503 -0.2970
vn -0.0936 0.9503 -0.2970
vn -0.2772 0.9138 -0.2970
vn -0.4501 0.8421 -0.2970
vn -0.6058 0.7381 -0.2970
vn -0.7381 0.6058 -0.2970
vn -0.8421 0.4501 -0.2970
vn -0.9138 0.2772 -0.2970
vn -0.9503 0.0936 -0.2970
vn -0.9503 -0.0936 -0.2970
vn -0.9138 -0.2772 -0.2970
vn -0.8421 -0.4501 -0.2970
vn -0.7381 -0.6058 -0.2970
vn -0.6058 -0.7381 -0.2970
vn -0.4501 -0.8421 -0.2970
vn -0.0000 -0.0000 1.0000
vn -0.2772 -0.9138 -0.2970
vn -0.0936 -0.9503 -0.2970
vn -0.0001 -0.0000 1.0000
vn 0.0001 -0.0000 1.0000
vn 0.9952 -0.0980 -0.0000
vn 0.9569 -0.2903 -0.0000
vn 0.8820 -0.4713 -0.0000
vn 0.7729 -0.6345 -0.0000
vn 0.6344 -0.7730 -0.0000
vn 0.4714 -0.8819 -0.0000
vn 0.2903 -0.9569 -0.0000
vn 0.0980 -0.9952 -0.0000
vn -0.0980 -0.9952 -0.0000
vn -0.2902 -0.9570 -0.0000
vn -0.4715 -0.8819 -0.0000
vn -0.6344 -0.7730 -0.0000
vn -0.7730 -0.6344 -0.0000
vn -0.8819 -0.4714 -0.0000
vn -0.9569 -0.2903 -0.0000
vn -0.9952 -0.0980 -0.0000
vn -0.9952 0.0980 -0.0000
vn -0.9569 0.2903 -0.0000
vn -0.8819 0.4714 -0.0000
vn -0.7730 0.6344 -0.0000
vn -0.6344 0.7730 -0.0000
vn -0.4715 0.8819 -0.0000
vn -0.2902 0.9570 -0.0000
vn -0.0980 0.9952 -0.0000
vn 0.0980 0.9952 -0.0000
vn 0.2903 0.9569 -0.0000
vn 0.4714 0.8819 -0.0000
vn 0.6344 0.7730 -0.0000
vn 0.7729 0.6345 -0.0000
vn 0.8820 0.4713 -0.0000
vn 0.9569 0.2903 -0.0000
vn 0.9952 0.0980 -0.0000
vn -0.0000 -0.0000 -1.0000
vn 0.8819 -0.4714 -0.0000
vn 0.7730 -0.6344 -0.0000
vn 0.4715 -0.8819 -0.0000
vn 0.2902 -0.9570 -0.0000
vn -0.2903 -0.9569 -0.0000
vn -0.4714 -0.8819 -0.0000
vn -0.7729 -0.6345 -0.0000
vn -0.8820 -0.4713 -0.0000
vn -0.8820 0.4713 -0.0000
vn -0.7729 0.6345 -0.0000
vn -0.4714 0.8819 -0.0000
vn -0.2903 0.9569 -0.0000
vn 0.2902 0.9570 -0.0000
vn 0.4715 0.8819 -0.0000
vn 0.7730 0.6344 -0.0000
vn 0.8819 0.4714 -0.0000
vn -0.0001 -0.0000 -1.0000
vt 0.250000 0.490000
vt 0.250000 0.250000
vt 0.296822 0.485388
vt 0.341844 0.471731
vt 0.383337 0.449553
vt 0.419706 0.419706
vt 0.449553 0.383337
vt 0.471731 0.341844
vt 0.485388 0.296822
vt 0.490000 0.250000
vt 0.485388 0.203178
vt 0.471731 0.158156
vt 0.449553 0.116663
vt 0.419706 0.080294
vt 0.383337 0.050447
vt 0.341844 0.028269
vt 0.296822 0.014612
vt 0.250000 0.010000
vt 0.203178 0.014612
vt 0.158156 0.028269
vt 0.116663 0.050447
vt 0.080294 0.080294
vt 0.050447 0.116663
vt 0.028269 0.158156
vt 0.014612 0.203178
vt 0.010000 0.250000
vt 0.014612 0.296822
vt 0.028269 0.341844
vt 0.050447 0.383337
vt 0.080294 0.419706
vt 0.116663 0.449553
vt 0.158156 0.471731
vt 0.796822 0.014612
vt 0.514612 0.203178
vt 0.703178 0.485388
vt 0.203178 0.485388
vt 0.750000 0.490000
vt 0.796822 0.485388
vt 0.841844 0.471731
vt 0.883337 0.449553
vt 0.919706 0.419706
vt 0.949553 0.383337
vt 0.971731 0.341844
vt 0.985388 0.296822
vt 0.990000 0.250000
vt 0.985388 0.203178
vt 0.971731 0.158156
vt 0.949553 0.116663
vt 0.919706 0.080294
vt 0.883337 0.050447
vt 0.841844 0.028269
vt 0.750000 0.010000
vt 0.703178 0.014612
vt 0.658156 0.028269
vt 0.616663 0.050447
vt 0.580294 0.080294
vt 0.550447 0.116663
vt 0.528269 0.158156
vt 0.510000 0.250000
vt 0.514612 0.296822
vt 0.528269 0.341844
vt 0.550447 0.383337
vt 0.580294 0.419706
vt 0.616663 0.449553
vt 0.658156 0.471731
vt 1.000000 1.000000
vt 0.968750 0.500000
vt 1.000000 0.500000
vt 0.968750 1.000000
vt 0.937500 0.500000
vt 0.937500 1.000000
vt 0.906250 0.500000
vt 0.906250 1.000000
vt 0.875000 0.500000
vt 0.875000 1.000000
vt 0.843750 0.500000
vt 0.843750 1.000000
vt 0.812500 0.500000
vt 0.812500 1.000000
vt 0.781250 0.500000
vt 0.781250 1.000000
vt 0.750000 0.500000
vt 0.750000 1.000000
vt 0.718750 0.500000
vt 0.718750 1.000000
vt 0.687500 0.500000
vt 0.687500 1.000000
vt 0.656250 0.500000
vt 0.656250 1.000000
vt 0.625000 0.500000
vt 0.625000 1.000000
vt 0.593750 0.500000
vt 0.593750 1.000000
vt 0.562500 0.500000
vt 0.562500 1.000000
vt 0.531250 0.500000
vt 0.531250 1.000000
vt 0.500000 0.500000
vt 0.500000 1.000000
vt 0.468750 0.500000
vt 0.468750 1.000000
vt 0.437500 0.500000
vt 0.437500 1.000000
vt 0.406250 0.500000
vt 0.406250 1.000000
vt 0.375000 0.500000
vt 0.375000 1.000000
vt 0.343750 0.500000
vt 0.343750 1.000000
vt 0.312500 0.500000
vt 0.312500 1.000000
vt 0.281250 0.500000
vt 0.281250 1.000000
vt 0.250000 0.500000
vt 0.250000 1.000000
vt 0.218750 0.500000
vt 0.218750 1.000000
vt 0.187500 0.500000
vt 0.187500 1.000000
vt 0.156250 0.500000
vt 0.156250 1.000000
vt 0.125000 0.500000
vt 0.125000 1.000000
vt 0.093750 0.500000
vt 0.093750 1.000000
vt 0.062500 0.500000
vt 0.062500 1.000000
vt 0.031250 0.500000
vt 0.031250 1.000000
vt 0.000000 0.500000
vt 0.000000 1.000000
s 0
usemtl Material.007
f 1/1/1 33/2/1 2/3/1
f 2/3/2 33/2/2 3/4/2
f 3/4/3 33/2/3 4/5/3
f 4/5/4 33/2/4 5/6/4
f 5/6/5 33/2/5 6/7/5
f 6/7/6 33/2/6 7/8/6
f 7/8/7 33/2/7 8/9/7
f 8/9/8 33/2/8 9/10/8
f 9/10/9 33/2/9 10/11/9
f 10/11/10 33/2/10 11/12/10
f 11/12/11 33/2/11 12/13/11
f 12/13/12 33/2/12 13/14/12
f 13/14/13 33/2/13 14/15/13
f 14/15/14 33/2/14 15/16/14
f 15/16/15 33/2/15 16/17/15
f 16/17/16 33/2/16 17/18/16
f 17/18/17 33/2/17 18/19/17
f 18/19/18 33/2/18 19/20/18
f 19/20/19 33/2/19 20/21/19
f 20/21/20 33/2/20 21/22/20
f 21/22/21 33/2/21 22/23/21
f 22/23/22 33/2/22 23/24/22
f 23/24/23 33/2/23 24/25/23
f 24/25/24 33/2/24 25/26/24
f 25/26/25 33/2/25 26/27/25
f 26/27/26 33/2/26 27/28/26
f 27/28/27 33/2/27 28/29/27
f 28/29/28 33/2/28 29/30/28
f 29/30/29 33/2/29 30/31/29
f 30/31/30 33/2/30 31/32/30
f 16/33/31 24/34/31 32/35/31
f 31/32/32 33/2/32 32/36/32
f 32/36/33 33/2/33 1/1/33
f 32/35/31 1/37/31 2/38/31
f 2/38/31 3/39/31 4/40/31
f 4/40/31 5/41/31 6/42/31
f 6/42/34 7/43/34 8/44/34
f 8/44/31 9/45/31 10/46/31
f 10/46/34 11/47/34 12/48/34
f 12/48/31 13/49/31 14/50/31
f 14/50/31 15/51/31 16/33/31
f 16/33/31 17/52/31 18/53/31
f 18/53/31 19/54/31 20/55/31
f 20/55/31 21/56/31 22/57/31
f 22/57/35 23/58/35 24/34/35
f 24/34/31 25/59/31 26/60/31
f 26/60/35 27/61/35 28/62/35
f 28/62/31 29/63/31 30/64/31
f 30/64/31 31/65/31 32/35/31
f 32/35/31 2/38/31 8/44/31
f 2/38/31 4/40/31 8/44/31
f 4/40/31 6/42/31 8/44/31
f 8/44/31 10/46/31 16/33/31
f 10/46/31 12/48/31 16/33/31
f 12/48/31 14/50/31 16/33/31
f 16/33/31 18/53/31 24/34/31
f 18/53/31 20/55/31 24/34/31
f 20/55/31 22/57/31 24/34/31
f 24/34/31 26/60/31 32/35/31
f 26/60/31 28/62/31 32/35/31
f 28/62/31 30/64/31 32/35/31
f 32/35/31 8/44/31 16/33/31
f 35/66/36 36/67/36 34/68/36
f 37/69/37 38/70/37 36/67/37
f 39/71/38 40/72/38 38/70/38
f 41/73/39 42/74/39 40/72/39
f 43/75/40 44/76/40 42/74/40
f 45/77/41 46/78/41 44/76/41
f 47/79/42 48/80/42 46/78/42
f 49/81/43 50/82/43 48/80/43
f 51/83/44 52/84/44 50/82/44
f 53/85/45 54/86/45 52/84/45
f 55/87/46 56/88/46 54/86/46
f 57/89/47 58/90/47 56/88/47
f 59/91/48 60/92/48 58/90/48
f 61/93/49 62/94/49 60/92/49
f 63/95/50 64/96/50 62/94/50
f 65/97/51 66/98/51 64/96/51
f 67/99/52 68/100/52 66/98/52
f 69/101/53 70/102/53 68/100/53
f 71/103/54 72/104/54 70/102/54
f 73/105/55 74/106/55 72/104/55
f 75/107/56 76/108/56 74/106/56
f 77/109/57 78/110/57 76/108/57
f 79/111/58 80/112/58 78/110/58
f 81/113/59 82/114/59 80/112/59
f 83/115/60 84/116/60 82/114/60
f 85/117/61 86/118/61 84/116/61
f 87/119/62 88/120/62 86/118/62
f 89/121/63 90/122/63 88/120/63
f 91/123/64 92/124/64 90/122/64
f 93/125/65 94/126/65 92/124/65
f 71/20/31 55/12/31 39/4/31
f 95/127/66 96/128/66 94/126/66
f 97/129/67 34/130/67 96/128/67
f 64/33/68 80/34/68 96/35/68
f 35/66/36 37/69/36 36/67/36
f 37/69/37 39/71/37 38/70/37
f 39/71/69 41/73/69 40/72/69
f 41/73/70 43/75/70 42/74/70
f 43/75/40 45/77/40 44/76/40
f 45/77/71 47/79/71 46/78/71
f 47/79/72 49/81/72 48/80/72
f 49/81/43 51/83/43 50/82/43
f 51/83/44 53/85/44 52/84/44
f 53/85/73 55/87/73 54/86/73
f 55/87/74 57/89/74 56/88/74
f 57/89/47 59/91/47 58/90/47
f 59/91/75 61/93/75 60/92/75
f 61/93/76 63/95/76 62/94/76
f 63/95/50 65/97/50 64/96/50
f 65/97/51 67/99/51 66/98/51
f 67/99/52 69/101/52 68/100/52
f 69/101/53 71/103/53 70/102/53
f 71/103/77 73/105/77 72/104/77
f 73/105/78 75/107/78 74/106/78
f 75/107/56 77/109/56 76/108/56
f 77/109/79 79/111/79 78/110/79
f 79/111/80 81/113/80 80/112/80
f 81/113/59 83/115/59 82/114/59
f 83/115/60 85/117/60 84/116/60
f 85/117/81 87/119/81 86/118/81
f 87/119/82 89/121/82 88/120/82
f 89/121/63 91/123/63 90/122/63
f 91/123/83 93/125/83 92/124/83
f 93/125/84 95/127/84 94/126/84
f 39/4/31 37/3/31 35/1/31
f 35/1/31 97/36/31 39/4/31
f 97/36/31 95/32/31 39/4/31
f 95/32/31 93/31/31 91/30/31
f 91/30/31 89/29/31 87/28/31
f 87/28/31 85/27/31 83/26/31
f 83/26/31 81/25/31 87/28/31
f 81/25/31 79/24/31 87/28/31
f 79/24/31 77/23/31 75/22/31
f 75/22/31 73/21/31 71/20/31
f 71/20/31 69/19/31 63/16/31
f 69/19/31 67/18/31 63/16/31
f 67/18/31 65/17/31 63/16/31
f 63/16/31 61/15/31 59/14/31
f 59/14/31 57/13/31 55/12/31
f 55/12/31 53/11/31 47/8/31
f 53/11/31 51/10/31 47/8/31
f 51/10/31 49/9/31 47/8/31
f 47/8/31 45/7/31 43/6/31
f 43/6/31 41/5/31 39/4/31
f 95/32/31 91/30/31 39/4/31
f 91/30/31 87/28/31 39/4/31
f 79/24/31 75/22/31 87/28/31
f 75/22/31 71/20/31 87/28/31
f 63/16/31 59/14/31 71/20/31
f 59/14/31 55/12/31 71/20/31
f 47/8/31 43/6/31 55/12/31
f 43/6/31 39/4/31 55/12/31
f 39/4/31 87/28/31 71/20/31
f 95/127/66 97/129/66 96/128/66
f 97/129/67 35/131/67 34/130/67
f 96/35/68 34/37/68 36/38/68
f 36/38/68 38/39/68 40/40/68
f 40/40/68 42/41/68 44/42/68
f 44/42/68 46/43/68 48/44/68
f 48/44/68 50/45/68 52/46/68
f 52/46/68 54/47/68 56/48/68
f 56/48/68 58/49/68 60/50/68
f 60/50/68 62/51/68 64/33/68
f 64/33/68 66/52/68 68/53/68
f 68/53/68 70/54/68 72/55/68
f 72/55/68 74/56/68 76/57/68
f 76/57/68 78/58/68 80/34/68
f 80/34/68 82/59/68 84/60/68
f 84/60/68 86/61/68 88/62/68
f 88/62/68 90/63/68 92/64/68
f 92/64/68 94/65/68 96/35/68
f 96/35/68 36/38/68 48/44/68
f 36/38/68 40/40/68 48/44/68
f 40/40/68 44/42/68 48/44/68
f 48/44/68 52/46/68 64/33/68
f 52/46/68 56/48/68 64/33/68
f 56/48/85 60/50/85 64/33/85
f 64/33/68 68/53/68 80/34/68
f 68/53/68 72/55/68 80/34/68
f 72/55/68 76/57/68 80/34/68
f 80/34/68 84/60/68 96/35/68
f 84/60/68 88/62/68 96/35/68
f 88/62/68 92/64/68 96/35/68
f 96/35/68 48/44/68 64/33/68
o Cone.002
v 1.800000 -0.075000 0.000000 1.0000 0.0000 0.0000
v 1.800000 -0.072598 0.024386 1.0000 0.0000 0.0000
v 1.800000 -0.065485 0.047835 1.0000 0.0000 0.0000
v 1.800000 -0.053934 0.069446 1.0000 0.0000 0.0000
v 1.800000 -0.038388 0.088388 1.0000 0.0000 0.0000
v 1.800000 -0.019446 0.103934 1.0000 0.0000 0.0000
v 1.800000 0.002165 0.115485 1.0000 0.0000 0.0000
v 1.800000 0.025614 0.122598 1.0000 0.0000 0.0000
v 1.800000 0.050000 0.125000 1.0000 0.0000 0.0000
v 1.800000 0.074386 0.122598 1.0000 0.0000 0.0000
v 1.800000 0.097835 0.115485 1.0000 0.0000 0.0000
v 1.800000 0.119446 0.103934 1.0000 0.0000 0.0000
v 1.800000 0.138388 0.088388 1.0000 0.0000 0.0000
v 1.800000 0.153934 0.069446 1.0000 0.0000 0.0000
v 1.800000 0.165485 0.047835 1.0000 0.0000 0.0000
v 1.800000 0.172598 0.024386 1.0000 0.0000 0.0000
v 1.800000 0.175000 -0.000000 1.0000 0.0000 0.0000
v 1.800000 0.172598 -0.024386 1.0000 0.0000 0.0000
v 1.800000 0.165485 -0.047835 1.0000 0.0000 0.0000
v 1.800000 0.153934 -0.069446 1.0000 0.0000 0.0000
v 1.800000 0.138388 -0.088388 1.0000 0.0000 0.0000
v 1.800000 0.119446 -0.103934 1.0000 0.0000 0.0000
v 1.800000 0.097835 -0.115485 1.0000 0.0000 0.0000
v 1.800000 0.074386 -0.122598 1.0000 0.0000 0.0000
v 1.800000 0.050000 -0.125000 1.0000 0.0000 0.0000
v 1.800000 0.025614 -0.122598 1.0000 0.0000 0.0000
v 1.800000 0.002165 -0.115485 1.0000 0.0000 0.0000
v 1.800000 -0.019446 -0.103934 1.0000 0.0000 0.0000
v 1.800000 -0.038388 -0.088388 1.0000 0.0000 0.0000
v 1.800000 -0.053934 -0.069446 1.0000 0.0000 0.0000
v 1.800000 -0.065485 -0.047835 1.0000 0.0000 0.0000
v 1.800000 -0.072598 -0.024386 1.0000 0.0000 0.0000
v 2.200000 0.050000 -0.000000 1.0000 0.1608 0.1608
v 0.000000 0.050000 -0.050000 1.0000 0.0000 0.0000
v 2.000000 0.050000 -0.050000 1.0000 0.0000 0.0000
v 0.000000 0.040246 -0.049039 1.0000 0.0000 0.0000
v 2.000000 0.040245 -0.049039 1.0000 0.0000 0.0000
v 0.000000 0.030866 -0.046194 1.0000 0.0000 0.0000
v 2.000000 0.030866 -0.046194 1.0000 0.0000 0.0000
v 0.000000 0.022222 -0.041573 1.0000 0.0039 0.0039
v 2.000000 0.022221 -0.041573 1.0000 0.0000 0.0000
v 0.000000 0.014645 -0.035355 1.0000 0.0039 0.0039
v 2.000000 0.014645 -0.035355 1.0000 0.0000 0.0000
v 0.000000 0.008427 -0.027779 1.0000 0.0039 0.0039
v 2.000000 0.008426 -0.027779 1.0000 0.0000 0.0000
v 0.000000 0.003806 -0.019134 1.0000 0.0039 0.0039
v 2.000000 0.003806 -0.019134 1.0000 0.0000 0.0000
v 0.000000 0.000961 -0.009755 1.0000 0.0000 0.0000
v 2.000000 0.000961 -0.009755 1.0000 0.0000 0.0000
v 0.000000 0.000000 0.000000 1.0000 0.0000 0.0000
v 2.000000 0.000000 0.000000 1.0000 0.0000 0.0000
v 0.000000 0.000961 0.009755 1.0000 0.0039 0.0039
v 2.000000 0.000961 0.009755 1.0000 0.0000 0.0000
v 0.000000 0.003806 0.019134 1.0000 0.0039 0.0039
v 2.000000 0.003806 0.019134 1.0000 0.0000 0.0000
v 0.000000 0.008427 0.027779 1.0000 0.0000 0.0000
v 2.000000 0.008426 0.027779 1.0000 0.0000 0.0000
v 0.000000 0.014645 0.035355 1.0000 0.0000 0.0000
v 2.000000 0.014645 0.035355 1.0000 0.0039 0.0039
v 0.000000 0.022222 0.041573 1.0000 0.0000 0.0000
v 2.000000 0.022221 0.041573 1.0000 0.0039 0.0039
v 0.000000 0.030866 0.046194 1.0000 0.0000 0.0000
v 2.000000 0.030866 0.046194 1.0000 0.0039 0.0039
v 0.000000 0.040246 0.049039 1.0000 0.0000 0.0000
v 2.000000 0.040245 0.049039 1.0000 0.0039 0.0039
v 0.000000 0.050000 0.050000 1.0000 0.0000 0.0000
v 2.000000 0.050000 0.050000 1.0000 0.0039 0.0039
v 0.000000 0.059755 0.049039 1.0000 0.0000 0.0000
v 2.000000 0.059754 0.049039 1.0000 0.0000 0.0000
v 0.000000 0.069134 0.046194 1.0000 0.0000 0.0000
v 2.000000 0.069134 0.046194 1.0000 0.0000 0.0000
v 0.000000 0.077779 0.041573 1.0000 0.0000 0.0000
v 2.000000 0.077778 0.041573 1.0000 0.0000 0.0000
v 0.000000 0.085355 0.035355 1.0000 0.0000 0.0000
v 2.000000 0.085355 0.035355 1.0000 0.0000 0.0000
v 0.000000 0.091574 0.027779 1.0000 0.0000 0.0000
v 2.000000 0.091573 0.027779 1.0000 0.0000 0.0000
v 0.000000 0.096194 0.019134 1.0000 0.0000 0.0000
v 2.000000 0.096194 0.019134 1.0000 0.0000 0.0000
v 0.000000 0.099039 0.009755 1.0000 0.0000 0.0000
v 2.000000 0.099039 0.009755 1.0000 0.0000 0.0000
v 0.000000 0.100000 -0.000000 1.0000 0.0000 0.0000
v 2.000000 0.100000 -0.000000 1.0000 0.0000 0.0000
v 0.000000 0.099039 -0.009755 1.0000 0.0000 0.0000
v 2.000000 0.099039 -0.009755 1.0000 0.0000 0.0000
v 0.000000 0.096194 -0.019134 1.0000 0.0000 0.0000
v 2.000000 0.096194 -0.019134 1.0000 0.0000 0.0000
v 0.000000 0.091574 -0.027779 1.0000 0.0000 0.0000
v 2.000000 0.091573 -0.027779 1.0000 0.0000 0.0000
v 0.000000 0.085355 -0.035355 1.0000 0.0000 0.0000
v 2.000000 0.085355 -0.035355 1.0000 0.0000 0.0000
v 0.000000 0.077779 -0.041573 1.0000 0.0000 0.0000
v 2.000000 0.077778 -0.041573 1.0000 0.0000 0.0000
v 0.000000 0.069134 -0.046194 1.0000 0.0000 0.0000
v 2.000000 0.069134 -0.046194 1.0000 0.0000 0.0000
v 0.000000 0.059755 -0.049039 1.0000 0.0000 0.0000
v 2.000000 0.059754 -0.049039 1.0000 0.0000 0.0000
vn 0.2970 -0.9503 0.0936
vn 0.2970 -0.9138 0.2772
vn 0.2970 -0.8421 0.4501
vn 0.2970 -0.7381 0.6058
vn 0.2970 -0.6058 0.7381
vn 0.2970 -0.4501 0.8421
vn 0.2970 -0.2772 0.9138
vn 0.2970 -0.0936 0.9503
vn 0.2970 0.0936 0.9503
vn 0.2970 0.2772 0.9138
vn 0.2970 0.4501 0.8421
vn 0.2970 0.6058 0.7381
vn 0.2970 0.7381 0.6058
vn 0.2970 0.8421 0.4501
vn 0.2970 0.9138 0.2772
vn 0.2970 0.9503 0.0936
vn 0.2970 0.9503 -0.0936
vn 0.2970 0.9138 -0.2772
vn 0.2970 0.8421 -0.4501
vn 0.2970 0.7381 -0.6058
vn 0.2970 0.6058 -0.7381
vn 0.2970 0.4501 -0.8421
vn 0.2970 0.2772 -0.9138
vn 0.2970 0.0936 -0.9503
vn 0.2970 -0.0936 -0.9503
vn 0.2970 -0.2772 -0.9138
vn 0.2970 -0.4501 -0.8421
vn 0.2970 -0.6058 -0.7381
vn 0.2970 -0.7381 -0.6058
vn 0.2970 -0.8421 -0.4501
vn -1.0000 -0.0000 -0.0000
vn 0.2970 -0.9138 -0.2772
vn 0.2970 -0.9503 -0.0936
vn -1.0000 0.0001 -0.0000
vn -1.0000 -0.0001 -0.0000
vn -1.0000 0.0003 -0.0000
vn -0.0000 -0.0980 -0.9952
vn -0.0000 -0.2902 -0.9570
vn -0.0000 -0.4715 -0.8819
vn -0.0000 -0.6344 -0.7730
vn -0.0000 -0.7730 -0.6344
vn -0.0000 -0.8819 -0.4714
vn -0.0000 -0.9569 -0.2903
vn -0.0000 -0.9952 -0.0980
vn -0.0000 -0.9952 0.0980
vn -0.0000 -0.9569 0.2903
vn -0.0000 -0.8819 0.4714
vn -0.0000 -0.7730 0.6344
vn -0.0000 -0.6344 0.7730
vn -0.0000 -0.4715 0.8819
vn -0.0000 -0.2902 0.9570
vn -0.0000 -0.0980 0.9952
vn -0.0000 0.0980 0.9952
vn -0.0000 0.2903 0.9569
vn -0.0000 0.4714 0.8819
vn -0.0000 0.6344 0.7730
vn -0.0000 0.7729 0.6345
vn -0.0000 0.8820 0.4713
vn -0.0000 0.9569 0.2903
vn -0.0000 0.9952 0.0980
vn -0.0000 0.9952 -0.0980
vn -0.0000 0.9569 -0.2903
vn -0.0000 0.8820 -0.4713
vn -0.0000 0.7729 -0.6345
vn -0.0000 0.6344 -0.7730
vn -0.0000 0.4714 -0.8819
vn 1.0000 -0.0000 -0.0000
vn -0.0000 0.2903 -0.9569
vn -0.0000 0.0980 -0.9952
vn -0.0000 -0.2903 -0.9569
vn -0.0000 -0.4714 -0.8819
vn -0.0000 -0.7729 -0.6345
vn -0.0000 -0.8820 -0.4713
vn -0.0000 -0.8820 0.4713
vn -0.0000 -0.7729 0.6345
vn -0.0000 -0.4714 0.8819
vn -0.0000 -0.2903 0.9569
vn -0.0000 0.2902 0.9570
vn -0.0000 0.4715 0.8819
vn -0.0000 0.7730 0.6344
vn -0.0000 0.8819 0.4714
vn -0.0000 0.8819 -0.4714
vn -0.0000 0.7730 -0.6344
vn -0.0000 0.4715 -0.8819
vn -0.0000 0.2902 -0.9570
vt 0.250000 0.490000
vt 0.250000 0.250000
vt 0.296822 0.485388
vt 0.341844 0.471731
vt 0.383337 0.449553
vt 0.419706 0.419706
vt 0.449553 0.383337
vt 0.471731 0.341844
vt 0.485388 0.296822
vt 0.490000 0.250000
vt 0.485388 0.203178
vt 0.471731 0.158156
vt 0.449553 0.116663
vt 0.419706 0.080294
vt 0.383337 0.050447
vt 0.341844 0.028269
vt 0.296822 0.014612
vt 0.250000 0.010000
vt 0.203178 0.014612
vt 0.158156 0.028269
vt 0.116663 0.050447
vt 0.080294 0.080294
vt 0.050447 0.116663
vt 0.028269 0.158156
vt 0.014612 0.203178
vt 0.010000 0.250000
vt 0.014612 0.296822
vt 0.028269 0.341844
vt 0.050447 0.383337
vt 0.080294 0.419706
vt 0.116663 0.449553
vt 0.158156 0.471731
vt 0.796822 0.014612
vt 0.514612 0.203178
vt 0.703178 0.485388
vt 0.203178 0.485388
vt 0.750000 0.490000
vt 0.796822 0.485388
vt 0.841844 0.471731
vt 0.883337 0.449553
vt 0.919706 0.419706
vt 0.949553 0.383337
vt 0.971731 0.341844
vt 0.985388 0.296822
vt 0.990000 0.250000
vt 0.985388 0.203178
vt 0.971731 0.158156
vt 0.949553 0.116663
vt 0.919706 0.080294
vt 0.883337 0.050447
vt 0.841844 0.028269
vt 0.750000 0.010000
vt 0.703178 0.014612
vt 0.658156 0.028269
vt 0.616663 0.050447
vt 0.580294 0.080294
vt 0.550447 0.116663
vt 0.528269 0.158156
vt 0.510000 0.250000
vt 0.514612 0.296822
vt 0.528269 0.341844
vt 0.550447 0.383337
vt 0.580294 0.419706
vt 0.616663 0.449553
vt 0.658156 0.471731
vt 0.000000 0.000000
s 0
usemtl Material.010
f 98/132/86 130/133/86 99/134/86
f 99/134/87 130/133/87 100/135/87
f 100/135/88 130/133/88 101/136/88
f 101/136/89 130/133/89 102/137/89
f 102/137/90 130/133/90 103/138/90
f 103/138/91 130/133/91 104/139/91
f 104/139/92 130/133/92 105/140/92
f 105/140/93 130/133/93 106/141/93
f 106/141/94 130/133/94 107/142/94
f 107/142/95 130/133/95 108/143/95
f 108/143/96 130/133/96 109/144/96
f 109/144/97 130/133/97 110/145/97
f 110/145/98 130/133/98 111/146/98
f 111/146/99 130/133/99 112/147/99
f 112/147/100 130/133/100 113/148/100
f 113/148/101 130/133/101 114/149/101
f 114/149/102 130/133/102 115/150/102
f 115/150/103 130/133/103 116/151/103
f 116/151/104 130/133/104 117/152/104
f 117/152/105 130/133/105 118/153/105
f 118/153/106 130/133/106 119/154/106
f 119/154/107 130/133/107 120/155/107
f 120/155/108 130/133/108 121/156/108
f 121/156/109 130/133/109 122/157/109
f 122/157/110 130/133/110 123/158/110
f 123/158/111 130/133/111 124/159/111
f 124/159/112 130/133/112 125/160/112
f 125/160/113 130/133/113 126/161/113
f 126/161/114 130/133/114 127/162/114
f 127/162/115 130/133/115 128/163/115
f 113/164/116 121/165/116 129/166/116
f 128/163/117 130/133/117 129/167/117
f 129/167/118 130/133/118 98/132/118
f 129/166/116 98/168/116 99/169/116
f 99/169/119 100/170/119 101/171/119
f 101/171/116 102/172/116 103/173/116
f 103/173/116 104/174/116 105/175/116
f 105/175/116 106/176/116 107/177/116
f 107/177/116 108/178/116 109/179/116
f 109/179/119 110/180/119 111/181/119
f 111/181/120 112/182/120 113/164/120
f 113/164/116 114/183/116 115/184/116
f 115/184/121 116/185/121 117/186/121
f 117/186/116 118/187/116 119/188/116
f 119/188/116 120/189/116 121/165/116
f 121/165/116 122/190/116 123/191/116
f 123/191/116 124/192/116 125/193/116
f 125/193/120 126/194/120 127/195/120
f 127/195/119 128/196/119 129/166/119
f 129/166/116 99/169/116 105/175/116
f 99/169/116 101/171/116 105/175/116
f 101/171/116 103/173/116 105/175/116
f 105/175/116 107/177/116 113/164/116
f 107/177/116 109/179/116 113/164/116
f 109/179/116 111/181/116 113/164/116
f 113/164/116 115/184/116 121/165/116
f 115/184/116 117/186/116 121/165/116
f 117/186/116 119/188/116 121/165/116
f 121/165/116 123/191/116 129/166/116
f 123/191/116 125/193/116 129/166/116
f 125/193/116 127/195/116 129/166/116
f 129/166/116 105/175/116 113/164/116
f 132/197/122 133/197/122 131/197/122
f 134/197/123 135/197/123 133/197/123
f 136/197/124 137/197/124 135/197/124
f 138/197/125 139/197/125 137/197/125
f 140/197/126 141/197/126 139/197/126
f 142/197/127 143/197/127 141/197/127
f 144/197/128 145/197/128 143/197/128
f 146/197/129 147/197/129 145/197/129
f 148/197/130 149/197/130 147/197/130
f 150/197/131 151/197/131 149/197/131
f 152/197/132 153/197/132 151/197/132
f 154/197/133 155/197/133 153/197/133
f 156/197/134 157/197/134 155/197/134
f 158/197/135 159/197/135 157/197/135
f 160/197/136 161/197/136 159/197/136
f 162/197/137 163/197/137 161/197/137
f 164/197/138 165/197/138 163/197/138
f 166/197/139 167/197/139 165/197/139
f 168/197/140 169/197/140 167/197/140
f 170/197/141 171/197/141 169/197/141
f 172/197/142 173/197/142 171/197/142
f 174/197/143 175/197/143 173/197/143
f 176/197/144 177/197/144 175/197/144
f 178/197/145 179/197/145 177/197/145
f 180/197/146 181/197/146 179/197/146
f 182/197/147 183/197/147 181/197/147
f 184/197/148 185/197/148 183/197/148
f 186/197/149 187/197/149 185/197/149
f 188/197/150 189/197/150 187/197/150
f 190/197/151 191/197/151 189/197/151
f 168/197/152 152/197/152 136/197/152
f 192/197/153 193/197/153 191/197/153
f 194/197/154 131/197/154 193/197/154
f 161/197/116 177/197/116 193/197/116
f 132/197/122 134/197/122 133/197/122
f 134/197/155 136/197/155 135/197/155
f 136/197/156 138/197/156 137/197/156
f 138/197/125 140/197/125 139/197/125
f 140/197/157 142/197/157 141/197/157
f 142/197/158 144/197/158 143/197/158
f 144/197/128 146/197/128 145/197/128
f 146/197/129 148/197/129 147/197/129
f 148/197/130 150/197/130 149/197/130
f 150/197/131 152/197/131 151/197/131
f 152/197/159 154/197/159 153/197/159
f 154/197/160 156/197/160 155/197/160
f 156/197/134 158/197/134 157/197/134
f 158/197/161 160/197/161 159/197/161
f 160/197/162 162/197/162 161/197/162
f 162/197/137 164/197/137 163/197/137
f 164/197/138 166/197/138 165/197/138
f 166/197/163 168/197/163 167/197/163
f 168/197/164 170/197/164 169/197/164
f 170/197/141 172/197/141 171/197/141
f 172/197/165 174/197/165 173/197/165
f 174/197/166 176/197/166 175/197/166
f 176/197/144 178/197/144 177/197/144
f 178/197/145 180/197/145 179/197/145
f 180/197/146 182/197/146 181/197/146
f 182/197/147 184/197/147 183/197/147
f 184/197/167 186/197/167 185/197/167
f 186/197/168 188/197/168 187/197/168
f 188/197/150 190/197/150 189/197/150
f 190/197/169 192/197/169 191/197/169
f 136/197/152 134/197/152 132/197/152
f 132/197/152 194/197/152 136/197/152
f 194/197/152 192/197/152 136/197/152
f 192/197/152 190/197/152 188/197/152
f 188/197/152 186/197/152 184/197/152
f 184/197/152 182/197/152 180/197/152
f 180/197/152 178/197/152 184/197/152
f 178/197/152 176/197/152 184/197/152
f 176/197/152 174/197/152 172/197/152
f 172/197/152 170/197/152 168/197/152
f 168/197/152 166/197/152 160/197/152
f 166/197/152 164/197/152 160/197/152
f 164/197/152 162/197/152 160/197/152
f 160/197/152 158/197/152 156/197/152
f 156/197/152 154/197/152 152/197/152
f 152/197/152 150/197/152 144/197/152
f 150/197/152 148/197/152 144/197/152
f 148/197/152 146/197/152 144/197/152
f 144/197/152 142/197/152 140/197/152
f 140/197/152 138/197/152 136/197/152
f 192/197/152 188/197/152 136/197/152
f 188/197/152 184/197/152 136/197/152
f 176/197/152 172/197/152 184/197/152
f 172/197/152 168/197/152 184/197/152
f 160/197/152 156/197/152 168/197/152
f 156/197/152 152/197/152 168/197/152
f 144/197/152 140/197/152 152/197/152
f 140/197/152 136/197/152 152/197/152
f 136/197/152 184/197/152 168/197/152
f 192/197/170 194/197/170 193/197/170
f 194/197/154 132/197/154 131/197/154
f 193/197/116 131/197/116 133/197/116
f 133/197/116 135/197/116 137/197/116
f 137/197/116 139/197/116 141/197/116
f 141/197/116 143/197/116 145/197/116
f 145/197/116 147/197/116 149/197/116
f 149/197/116 151/197/116 153/197/116
f 153/197/116 155/197/116 157/197/116
f 157/197/116 159/197/116 161/197/116
f 161/197/116 163/197/116 165/197/116
f 165/197/116 167/197/116 169/197/116
f 169/197/116 171/197/116 173/197/116
f 173/197/116 175/197/116 177/197/116
f 177/197/116 179/197/116 181/197/116
f 181/197/116 183/197/116 185/197/116
f 185/197/116 187/197/116 189/197/116
f 189/197/116 191/197/116 193/197/116
f 193/197/116 133/197/116 145/197/116
f 133/197/116 137/197/116 145/197/116
f 137/197/116 141/197/116 145/197/116
f 145/197/116 149/197/116 161/197/116
f 149/197/116 153/197/116 161/197/116
f 153/197/116 157/197/116 161/197/116
f 161/197/116 165/197/116 177/197/116
f 165/197/116 169/197/116 177/197/116
f 169/197/116 173/197/116 177/197/116
f 177/197/116 181/197/116 193/197/116
f 181/197/116 185/197/116 193/197/116
f 185/197/116 189/197/116 193/197/116
f 193/197/116 145/197/116 161/197/116
o Cylinder
v 0.000000 -0.000000 -0.050000 0.1294 1.0000 0.1294
v 0.000000 1.900000 -0.050000 0.0000 1.0000 0.0000
v 0.009755 -0.000000 -0.049039 0.1176 1.0000 0.1176
v 0.009755 1.900000 -0.049039 0.0000 1.0000 0.0000
v 0.019134 -0.000000 -0.046194 0.1020 1.0000 0.1020
v 0.019134 1.900000 -0.046194 0.0000 1.0000 0.0000
v 0.027779 -0.000000 -0.041573 0.0863 1.0000 0.0863
v 0.027779 1.900000 -0.041573 0.0000 1.0000 0.0000
v 0.035355 -0.000000 -0.035355 0.0667 1.0000 0.0667
v 0.035355 1.900000 -0.035355 0.0000 1.0000 0.0000
v 0.041573 -0.000000 -0.027779 0.0549 1.0000 0.0549
v 0.041573 1.900000 -0.027779 0.0000 1.0000 0.0000
v 0.046194 -0.000000 -0.019134 0.0431 1.0000 0.0431
v 0.046194 1.900000 -0.019134 0.0000 1.0000 0.0000
v 0.049039 -0.000000 -0.009755 0.0314 1.0000 0.0314
v 0.049039 1.900000 -0.009755 0.0000 1.0000 0.0000
v 0.050000 0.000000 0.000000 0.0235 1.0000 0.0235
v 0.050000 1.900000 -0.000000 0.0000 1.0000 0.0000
v 0.049039 0.000000 0.009755 0.0157 1.0000 0.0157
v 0.049039 1.900000 0.009755 0.0000 1.0000 0.0000
v 0.046194 0.000000 0.019134 0.0118 1.0000 0.0118
v 0.046194 1.900000 0.019134 0.0000 1.0000 0.0000
v 0.041573 0.000000 0.027779 0.0157 1.0000 0.0157
v 0.041573 1.900000 0.027779 0.0000 1.0000 0.0000
v 0.035355 0.000000 0.035355 0.0157 1.0000 0.0157
v 0.035355 1.900000 0.035355 0.0000 1.0000 0.0000
v 0.027779 0.000000 0.041573 0.0157 1.0000 0.0157
v 0.027779 1.900000 0.041573 0.0000 1.0000 0.0000
v 0.019134 0.000000 0.046194 0.0196 1.0000 0.0196
v 0.019134 1.900000 0.046194 0.0000 1.0000 0.0000
v 0.009755 0.000000 0.049039 0.0196 1.0000 0.0196
v 0.009755 1.900000 0.049039 0.0000 1.0000 0.0000
v 0.000000 0.000000 0.050000 0.0196 1.0000 0.0196
v 0.000000 1.900000 0.050000 0.0000 1.0000 0.0000
v -0.009755 0.000000 0.049039 0.0235 1.0000 0.0235
v -0.009755 1.900000 0.049039 0.0000 1.0000 0.0000
v -0.019134 0.000000 0.046194 0.0314 1.0000 0.0314
v -0.019134 1.900000 0.046194 0.0000 1.0000 0.0000
v -0.027779 0.000000 0.041573 0.0392 1.0000 0.0392
v -0.027779 1.900000 0.041573 0.0000 1.0000 0.0000
v -0.035355 0.000000 0.035355 0.0549 1.0000 0.0549
v -0.035355 1.900000 0.035355 0.0000 1.0000 0.0000
v -0.041573 0.000000 0.027779 0.0706 1.0000 0.0706
v -0.041573 1.900000 0.027779 0.0000 1.0000 0.0000
v -0.046194 0.000000 0.019134 0.0863 1.0000 0.0863
v -0.046194 1.900000 0.019134 0.0000 1.0000 0.0000
v -0.049039 0.000000 0.009755 0.1020 1.0000 0.1020
v -0.049039 1.900000 0.009755 0.0000 1.0000 0.0000
v -0.050000 0.000000 0.000000 0.1137 1.0000 0.1137
v -0.050000 1.900000 -0.000000 0.0000 1.0000 0.0000
v -0.049039 -0.000000 -0.009755 0.1294 1.0000 0.1294
v -0.049039 1.900000 -0.009755 0.0000 1.0000 0.0000
v -0.046194 -0.000000 -0.019134 0.1412 1.0000 0.1412
v -0.046194 1.900000 -0.019134 0.0000 1.0000 0.0000
v -0.041573 -0.000000 -0.027779 0.1490 1.0000 0.1490
v -0.041573 1.900000 -0.027779 0.0000 1.0000 0.0000
v -0.035355 -0.000000 -0.035355 0.1530 1.0000 0.1530
v -0.035355 1.900000 -0.035355 0.0000 1.0000 0.0000
v -0.027779 -0.000000 -0.041573 0.1530 1.0000 0.1530
v -0.027779 1.900000 -0.041573 0.0000 1.0000 0.0000
v -0.019134 -0.000000 -0.046194 0.1490 1.0000 0.1490
v -0.019134 1.900000 -0.046194 0.0000 1.0000 0.0000
v -0.009755 -0.000000 -0.049039 0.1412 1.0000 0.1412
v -0.009755 1.900000 -0.049039 0.0000 1.0000 0.0000
v 0.000000 1.800000 -0.125000 0.0000 1.0000 0.0000
v 0.024386 1.800000 -0.122598 0.0000 1.0000 0.0000
v 0.047835 1.800000 -0.115485 0.0000 1.0000 0.0000
v 0.069446 1.800000 -0.103934 0.0000 1.0000 0.0000
v 0.088388 1.800000 -0.088388 0.0000 1.0000 0.0000
v 0.103934 1.800000 -0.069446 0.0000 1.0000 0.0000
v 0.115485 1.800000 -0.047835 0.0000 1.0000 0.0000
v 0.122598 1.800000 -0.024386 0.0000 1.0000 0.0000
v 0.125000 1.800000 -0.000000 0.0000 1.0000 0.0000
v 0.122598 1.800000 0.024386 0.0000 1.0000 0.0000
v 0.115485 1.800000 0.047835 0.0000 1.0000 0.0000
v 0.103934 1.800000 0.069446 0.0000 1.0000 0.0000
v 0.088388 1.800000 0.088388 0.0000 1.0000 0.0000
v 0.069446 1.800000 0.103934 0.0000 1.0000 0.0000
v 0.047835 1.800000 0.115485 0.0000 1.0000 0.0000
v 0.024386 1.800000 0.122598 0.0000 1.0000 0.0000
v 0.000000 1.800000 0.125000 0.0000 1.0000 0.0000
v -0.024386 1.800000 0.122598 0.0039 1.0000 0.0039
v -0.047835 1.800000 0.115485 0.0078 1.0000 0.0078
v -0.069446 1.800000 0.103934 0.0196 1.0000 0.0196
v -0.088388 1.800000 0.088388 0.0235 1.0000 0.0235
v -0.103934 1.800000 0.069446 0.0275 1.0000 0.0275
v -0.115485 1.800000 0.047835 0.0235 1.0000 0.0235
v -0.122598 1.800000 0.024386 0.0196 1.0000 0.0196
v -0.125000 1.800000 -0.000000 0.0157 1.0000 0.0157
v -0.122598 1.800000 -0.024386 0.0118 1.0000 0.0118
v -0.115485 1.800000 -0.047835 0.0118 1.0000 0.0118
v -0.103934 1.800000 -0.069446 0.0078 1.0000 0.0078
v -0.088388 1.800000 -0.088388 0.0039 1.0000 0.0039
v -0.069446 1.800000 -0.103934 0.0000 1.0000 0.0000
v -0.047835 1.800000 -0.115485 0.0000 1.0000 0.0000
v -0.024386 1.800000 -0.122598 0.0000 1.0000 0.0000
v 0.000000 2.200000 -0.000000 0.1961 1.0000 0.1961
vn 0.0980 -0.0000 -0.9952
vn 0.2903 -0.0000 -0.9569
vn 0.4714 -0.0000 -0.8819
vn 0.6344 -0.0000 -0.7730
vn 0.7730 -0.0000 -0.6344
vn 0.8819 -0.0000 -0.4714
vn 0.9569 -0.0000 -0.2903
vn 0.9952 -0.0000 -0.0980
vn 0.9952 -0.0000 0.0980
vn 0.9569 -0.0000 0.2903
vn 0.8819 -0.0000 0.4714
vn 0.7730 -0.0000 0.6344
vn 0.6344 -0.0000 0.7730
vn 0.4714 -0.0000 0.8819
vn 0.2903 -0.0000 0.9569
vn 0.0980 -0.0000 0.9952
vn -0.0980 -0.0000 0.9952
vn -0.2903 -0.0000 0.9569
vn -0.4714 -0.0000 0.8819
vn -0.6344 -0.0000 0.7730
vn -0.7730 -0.0000 0.6344
vn -0.8819 -0.0000 0.4714
vn -0.9569 -0.0000 0.2903
vn -0.9952 -0.0000 0.0980
vn -0.9952 -0.0000 -0.0980
vn -0.9569 -0.0000 -0.2903
vn -0.8819 -0.0000 -0.4714
vn -0.7730 -0.0000 -0.6344
vn -0.6344 -0.0000 -0.7730
vn -0.4714 -0.0000 -0.8819
vn -0.0000 1.0000 -0.0000
vn -0.2903 -0.0000 -0.9569
vn -0.0980 -0.0000 -0.9952
vn -0.0000 -1.0000 -0.0000
vn -0.0000 1.0000 -0.0001
vn -0.0000 1.0000 0.0001
vn -0.0000 1.0000 -0.0002
vn -0.0000 1.0000 0.0002
vn 0.0936 0.2970 -0.9503
vn 0.2772 0.2970 -0.9138
vn 0.4501 0.2970 -0.8421
vn 0.6058 0.2970 -0.7381
vn 0.7381 0.2970 -0.6058
vn 0.8421 0.2970 -0.4501
vn 0.9138 0.2970 -0.2772
vn 0.9503 0.2970 -0.0936
vn 0.9503 0.2970 0.0936
vn 0.9138 0.2970 0.2772
vn 0.8421 0.2970 0.4501
vn 0.7381 0.2970 0.6058
vn 0.6058 0.2970 0.7381
vn 0.4501 0.2970 0.8421
vn 0.2772 0.2970 0.9138
vn 0.0936 0.2970 0.9503
vn -0.0936 0.2970 0.9503
vn -0.2772 0.2970 0.9138
vn -0.4501 0.2970 0.8421
vn -0.6058 0.2970 0.7381
vn -0.7381 0.2970 0.6058
vn -0.8421 0.2970 0.4501
vn -0.9138 0.2970 0.2772
vn -0.9503 0.2970 0.0936
vn -0.9503 0.2970 -0.0936
vn -0.9138 0.2970 -0.2772
vn -0.8421 0.2970 -0.4501
vn -0.7381 0.2970 -0.6058
vn -0.6058 0.2970 -0.7381
vn -0.4501 0.2970 -0.8421
vn -0.2772 0.2970 -0.9138
vn -0.0936 0.2970 -0.9503
vn -0.0000 -1.0000 0.0001
vn -0.0000 -1.0000 -0.0001
vt 1.000000 1.000000
vt 0.968750 0.500000
vt 1.000000 0.500000
vt 0.968750 1.000000
vt 0.937500 0.500000
vt 0.937500 1.000000
vt 0.906250 0.500000
vt 0.906250 1.000000
vt 0.875000 0.500000
vt 0.875000 1.000000
vt 0.843750 0.500000
vt 0.843750 1.000000
vt 0.812500 0.500000
vt 0.812500 1.000000
vt 0.781250 0.500000
vt 0.781250 1.000000
vt 0.750000 0.500000
vt 0.750000 1.000000
vt 0.718750 0.500000
vt 0.718750 1.000000
vt 0.687500 0.500000
vt 0.687500 1.000000
vt 0.656250 0.500000
vt 0.656250 1.000000
vt 0.625000 0.500000
vt 0.625000 1.000000
vt 0.593750 0.500000
vt 0.593750 1.000000
vt 0.562500 0.500000
vt 0.562500 1.000000
vt 0.531250 0.500000
vt 0.531250 1.000000
vt 0.500000 0.500000
vt 0.500000 1.000000
vt 0.468750 0.500000
vt 0.468750 1.000000
vt 0.437500 0.500000
vt 0.437500 1.000000
vt 0.406250 0.500000
vt 0.406250 1.000000
vt 0.375000 0.500000
vt 0.375000 1.000000
vt 0.343750 0.500000
vt 0.343750 1.000000
vt 0.312500 0.500000
vt 0.312500 1.000000
vt 0.281250 0.500000
vt 0.281250 1.000000
vt 0.250000 0.500000
vt 0.250000 1.000000
vt 0.218750 0.500000
vt 0.218750 1.000000
vt 0.187500 0.500000
vt 0.187500 1.000000
vt 0.156250 0.500000
vt 0.156250 1.000000
vt 0.125000 0.500000
vt 0.125000 1.000000
vt 0.093750 0.500000
vt 0.093750 1.000000
vt 0.062500 0.500000
vt 0.158156 0.028269
vt 0.471731 0.158156
vt 0.341844 0.471731
vt 0.062500 1.000000
vt 0.031250 0.500000
vt 0.031250 1.000000
vt 0.000000 0.500000
vt 0.796822 0.014612
vt 0.514612 0.203178
vt 0.703178 0.485388
vt 0.296822 0.485388
vt 0.250000 0.490000
vt 0.203178 0.485388
vt 0.158156 0.471731
vt 0.116663 0.449553
vt 0.080294 0.419706
vt 0.050447 0.383337
vt 0.028269 0.341844
vt 0.014612 0.296822
vt 0.010000 0.250000
vt 0.014612 0.203178
vt 0.028269 0.158156
vt 0.050447 0.116663
vt 0.080294 0.080294
vt 0.116663 0.050447
vt 0.203178 0.014612
vt 0.341844 0.028269
vt 0.250000 0.010000
vt 0.296822 0.014612
vt 0.383337 0.050447
vt 0.419706 0.080294
vt 0.449553 0.116663
vt 0.485388 0.203178
vt 0.471731 0.341844
vt 0.490000 0.250000
vt 0.485388 0.296822
vt 0.449553 0.383337
vt 0.419706 0.419706
vt 0.383337 0.449553
vt 0.000000 1.000000
vt 0.750000 0.490000
vt 0.796822 0.485388
vt 0.841844 0.471731
vt 0.883337 0.449553
vt 0.919706 0.419706
vt 0.949553 0.383337
vt 0.971731 0.341844
vt 0.985388 0.296822
vt 0.990000 0.250000
vt 0.985388 0.203178
vt 0.971731 0.158156
vt 0.949553 0.116663
vt 0.919706 0.080294
vt 0.883337 0.050447
vt 0.841844 0.028269
vt 0.750000 0.010000
vt 0.703178 0.014612
vt 0.658156 0.028269
vt 0.616663 0.050447
vt 0.580294 0.080294
vt 0.550447 0.116663
vt 0.528269 0.158156
vt 0.510000 0.250000
vt 0.514612 0.296822
vt 0.528269 0.341844
vt 0.550447 0.383337
vt 0.580294 0.419706
vt 0.616663 0.449553
vt 0.658156 0.471731
vt 0.250000 0.250000
s 0
usemtl Material.013
f 196/198/171 197/199/171 195/200/171
f 198/201/172 199/202/172 197/199/172
f 200/203/173 201/204/173 199/202/173
f 202/205/174 203/206/174 201/204/174
f 204/207/175 205/208/175 203/206/175
f 206/209/176 207/210/176 205/208/176
f 208/211/177 209/212/177 207/210/177
f 210/213/178 211/214/178 209/212/178
f 212/215/179 213/216/179 211/214/179
f 214/217/180 215/218/180 213/216/180
f 216/219/181 217/220/181 215/218/181
f 218/221/182 219/222/182 217/220/182
f 220/223/183 221/224/183 219/222/183
f 222/225/184 223/226/184 221/224/184
f 224/227/185 225/228/185 223/226/185
f 226/229/186 227/230/186 225/228/186
f 228/231/187 229/232/187 227/230/187
f 230/233/188 231/234/188 229/232/188
f 232/235/189 233/236/189 231/234/189
f 234/237/190 235/238/190 233/236/190
f 236/239/191 237/240/191 235/238/191
f 238/241/192 239/242/192 237/240/192
f 240/243/193 241/244/193 239/242/193
f 242/245/194 243/246/194 241/244/194
f 244/247/195 245/248/195 243/246/195
f 246/249/196 247/250/196 245/248/196
f 248/251/197 249/252/197 247/250/197
f 250/253/198 251/254/198 249/252/198
f 252/255/199 253/256/199 251/254/199
f 254/257/200 255/258/200 253/256/200
f 232/259/201 216/260/201 200/261/201
f 256/262/202 257/263/202 255/258/202
f 258/264/203 195/265/203 257/263/203
f 225/266/204 241/267/204 257/268/204
f 196/198/171 198/201/171 197/199/171
f 198/201/172 200/203/172 199/202/172
f 200/203/173 202/205/173 201/204/173
f 202/205/174 204/207/174 203/206/174
f 204/207/175 206/209/175 205/208/175
f 206/209/176 208/211/176 207/210/176
f 208/211/177 210/213/177 209/212/177
f 210/213/178 212/215/178 211/214/178
f 212/215/179 214/217/179 213/216/179
f 214/217/180 216/219/180 215/218/180
f 216/219/181 218/221/181 217/220/181
f 218/221/182 220/223/182 219/222/182
f 220/223/183 222/225/183 221/224/183
f 222/225/184 224/227/184 223/226/184
f 224/227/185 226/229/185 225/228/185
f 226/229/186 228/231/186 227/230/186
f 228/231/187 230/233/187 229/232/187
f 230/233/188 232/235/188 231/234/188
f 232/235/189 234/237/189 233/236/189
f 234/237/190 236/239/190 235/238/190
f 236/239/191 238/241/191 237/240/191
f 238/241/192 240/243/192 239/242/192
f 240/243/193 242/245/193 241/244/193
f 242/245/194 244/247/194 243/246/194
f 244/247/195 246/249/195 245/248/195
f 246/249/196 248/251/196 247/250/196
f 248/251/197 250/253/197 249/252/197
f 250/253/198 252/255/198 251/254/198
f 252/255/199 254/257/199 253/256/199
f 254/257/200 256/262/200 255/258/200
f 200/261/205 198/269/205 196/270/205
f 196/270/205 258/271/205 200/261/205
f 258/271/206 256/272/206 200/261/206
f 256/272/206 254/273/206 252/274/206
f 252/274/205 250/275/205 248/276/205
f 248/276/201 246/277/201 244/278/201
f 244/278/201 242/279/201 248/276/201
f 242/279/201 240/280/201 248/276/201
f 240/280/206 238/281/206 236/282/206
f 236/282/207 234/283/207 232/259/207
f 232/259/205 230/284/205 224/285/205
f 230/284/206 228/286/206 224/285/206
f 228/286/206 226/287/206 224/285/206
f 224/285/205 222/288/205 220/289/205
f 220/289/206 218/290/206 216/260/206
f 216/260/201 214/291/201 208/292/201
f 214/291/201 212/293/201 208/292/201
f 212/293/201 210/294/201 208/292/201
f 208/292/205 206/295/205 204/296/205
f 204/296/208 202/297/208 200/261/208
f 256/272/201 252/274/201 200/261/201
f 252/274/201 248/276/201 200/261/201
f 240/280/201 236/282/201 248/276/201
f 236/282/201 232/259/201 248/276/201
f 224/285/201 220/289/201 232/259/201
f 220/289/201 216/260/201 232/259/201
f 208/292/201 204/296/201 216/260/201
f 204/296/201 200/261/201 216/260/201
f 200/261/201 248/276/201 232/259/201
f 256/262/202 258/264/202 257/263/202
f 258/264/203 196/298/203 195/265/203
f 257/268/204 195/299/204 197/300/204
f 197/300/204 199/301/204 201/302/204
f 201/302/204 203/303/204 205/304/204
f 205/304/204 207/305/204 209/306/204
f 209/306/204 211/307/204 213/308/204
f 213/308/204 215/309/204 217/310/204
f 217/310/204 219/311/204 221/312/204
f 221/312/204 223/313/204 225/266/204
f 225/266/204 227/314/204 229/315/204
f 229/315/204 231/316/204 233/317/204
f 233/317/204 235/318/204 237/319/204
f 237/319/204 239/320/204 241/267/204
f 241/267/204 243/321/204 245/322/204
f 245/322/204 247/323/204 249/324/204
f 249/324/204 251/325/204 253/326/204
f 253/326/204 255/327/204 257/268/204
f 257/268/204 197/300/204 209/306/204
f 197/300/204 201/302/204 209/306/204
f 201/302/204 205/304/204 209/306/204
f 209/306/204 213/308/204 225/266/204
f 213/308/204 217/310/204 225/266/204
f 217/310/204 221/312/204 225/266/204
f 225/266/204 229/315/204 241/267/204
f 229/315/204 233/317/204 241/267/204
f 233/317/204 237/319/204 241/267/204
f 241/267/204 245/322/204 257/268/204
f 245/322/204 249/324/204 257/268/204
f 249/324/204 253/326/204 257/268/204
f 257/268/204 209/306/204 225/266/204
f 259/270/209 291/328/209 260/269/209
f 260/269/210 291/328/210 261/261/210
f 261/261/211 291/328/211 262/297/211
f 262/297/212 291/328/212 263/296/212
f 263/296/213 291/328/213 264/295/213
f 264/295/214 291/328/214 265/292/214
f 265/292/215 291/328/215 266/294/215
f 266/294/216 291/328/216 267/293/216
f 267/293/217 291/328/217 268/291/217
f 268/291/218 291/328/218 269/260/218
f 269/260/219 291/328/219 270/290/219
f 270/290/220 291/328/220 271/289/220
f 271/289/221 291/328/221 272/288/221
f 272/288/222 291/328/222 273/285/222
f 273/285/223 291/328/223 274/287/223
f 274/287/224 291/328/224 275/286/224
f 275/286/225 291/328/225 276/284/225
f 276/284/226 291/328/226 277/259/226
f 277/259/227 291/328/227 278/283/227
f 278/283/228 291/328/228 279/282/228
f 279/282/229 291/328/229 280/281/229
f 280/281/230 291/328/230 281/280/230
f 281/280/231 291/328/231 282/279/231
f 282/279/232 291/328/232 283/278/232
f 283/278/233 291/328/233 284/277/233
f 284/277/234 291/328/234 285/276/234
f 285/276/235 291/328/235 286/275/235
f 286/275/236 291/328/236 287/274/236
f 287/274/237 291/328/237 288/273/237
f 288/273/238 291/328/238 289/272/238
f 274/266/204 282/267/204 290/268/204
f 289/272/239 291/328/239 290/271/239
f 290/271/240 291/328/240 259/270/240
f 290/268/204 259/299/204 260/300/204
f 260/300/241 261/301/241 262/302/241
f 262/302/204 263/303/204 264/304/204
f 264/304/204 265/305/204 266/306/204
f 266/306/204 267/307/204 268/308/204
f 268/308/204 269/309/204 270/310/204
f 270/310/241 271/311/241 272/312/241
f 272/312/242 273/313/242 274/266/242
f 274/266/204 275/314/204 276/315/204
f 276/315/242 277/316/242 278/317/242
f 278/317/204 279/318/204 280/319/204
f 280/319/204 281/320/204 282/267/204
f 282/267/204 283/321/204 284/322/204
f 284/322/204 285/323/204 286/324/204
f 286/324/242 287/325/242 288/326/242
f 288/326/241 289/327/241 290/268/241
f 290/268/204 260/300/204 266/306/204
f 260/300/204 262/302/204 266/306/204
f 262/302/204 264/304/204 266/306/204
f 266/306/204 268/308/204 274/266/204
f 268/308/204 270/310/204 274/266/204
f 270/310/204 272/312/204 274/266/204
f 274/266/204 276/315/204 282/267/204
f 276/315/204 278/317/204 282/267/204
f 278/317/204 280/319/204 282/267/204
f 282/267/204 284/322/204 290/268/204
f 284/322/204 286/324/204 290/268/204
f 286/324/204 288/326/204 290/268/204
f 290/268/204 266/306/204 274/266/204
